<svg width="49" height="53" viewBox="0 0 49 53" fill="none" xmlns="http://www.w3.org/2000/svg">
<g filter="url(#filter0_d_5027_737)">
<mask id="mask0_5027_737" style="mask-type:alpha" maskUnits="userSpaceOnUse" x="1" y="0" width="45" height="45">
<rect width="45" height="45" transform="matrix(-1 0 0 1 46 0)" fill="#D9D9D9"/>
</mask>
<g mask="url(#mask0_5027_737)">
<path d="M42.0548 42.5214C42.9518 42.7825 43.7838 41.9505 43.5227 41.0534L40.4691 30.5615C41.0629 29.2803 41.5082 27.9678 41.8051 26.624C42.1019 25.2803 42.2504 23.9053 42.2504 22.499C42.2504 19.9053 41.7582 17.4678 40.7738 15.1865C39.7894 12.9053 38.4535 10.9209 36.766 9.2334C35.0785 7.5459 33.0941 6.20996 30.8129 5.22559C28.5316 4.24121 26.0941 3.74902 23.5004 3.74902C20.9066 3.74902 18.4691 4.24121 16.1879 5.22559C13.9066 6.20996 11.9222 7.5459 10.2347 9.2334C8.54724 10.9209 7.2113 12.9053 6.22693 15.1865C5.24255 17.4678 4.75037 19.9053 4.75037 22.499C4.75037 25.0928 5.24255 27.5303 6.22693 29.8115C7.2113 32.0928 8.54724 34.0772 10.2347 35.7647C11.9222 37.4522 13.9066 38.7881 16.1879 39.7725C18.4691 40.7568 20.9066 41.249 23.5004 41.249C24.9066 41.249 26.2816 41.1006 27.6254 40.8037C28.9691 40.5068 30.2816 40.0615 31.5629 39.4678L42.0548 42.5214ZM25.3754 28.8148C25.3754 29.4688 24.8452 29.999 24.1912 29.999H22.8096C22.1556 29.999 21.6254 29.4688 21.6254 28.8148V25.5582C21.6254 24.9042 21.0952 24.374 20.4412 24.374H17.1846C16.5306 24.374 16.0004 23.8438 16.0004 23.1898V21.8082C16.0004 21.1542 16.5306 20.624 17.1846 20.624H20.4412C21.0952 20.624 21.6254 20.0938 21.6254 19.4398V16.1832C21.6254 15.5292 22.1556 14.999 22.8096 14.999H24.1912C24.8452 14.999 25.3754 15.5292 25.3754 16.1832V19.4398C25.3754 20.0938 25.9056 20.624 26.5596 20.624H29.8162C30.4702 20.624 31.0004 21.1542 31.0004 21.8082V23.1898C31.0004 23.8438 30.4702 24.374 29.8162 24.374H26.5596C25.9056 24.374 25.3754 24.9042 25.3754 25.5582V28.8148Z" fill="url(#paint0_linear_5027_737)"/>
</g>
</g>
<defs>
<filter id="filter0_d_5027_737" x="0.0135241" y="3.74902" width="48.2947" height="48.295" filterUnits="userSpaceOnUse" color-interpolation-filters="sRGB">
<feFlood flood-opacity="0" result="BackgroundImageFix"/>
<feColorMatrix in="SourceAlpha" type="matrix" values="0 0 0 0 0 0 0 0 0 0 0 0 0 0 0 0 0 0 127 0" result="hardAlpha"/>
<feOffset dy="4.73684"/>
<feGaussianBlur stdDeviation="2.36842"/>
<feComposite in2="hardAlpha" operator="out"/>
<feColorMatrix type="matrix" values="0 0 0 0 0.956667 0 0 0 0 0.546097 0 0 0 0 0.62 0 0 0 0.65 0"/>
<feBlend mode="normal" in2="BackgroundImageFix" result="effect1_dropShadow_5027_737"/>
<feBlend mode="normal" in="SourceGraphic" in2="effect1_dropShadow_5027_737" result="shape"/>
</filter>
<linearGradient id="paint0_linear_5027_737" x1="24.4379" y1="3.74902" x2="24.4379" y2="43.124" gradientUnits="userSpaceOnUse">
<stop stop-color="#FF768F"/>
<stop offset="1" stop-color="#DE3A58"/>
</linearGradient>
</defs>
</svg>
