<?xml version="1.0" standalone="no"?>
<!DOCTYPE svg PUBLIC "-//W3C//DTD SVG 20010904//EN"
 "http://www.w3.org/TR/2001/REC-SVG-20010904/DTD/svg10.dtd">
<svg version="1.0" xmlns="http://www.w3.org/2000/svg"
 width="512.000000pt" height="512.000000pt" viewBox="0 0 512.000000 512.000000"
 preserveAspectRatio="xMidYMid meet">

<g transform="translate(0.000000,512.000000) scale(0.100000,-0.100000)"
fill="#000000" stroke="none">
<path d="M2480 4828 c-63 -43 -75 -69 -78 -177 l-4 -97 -88 -17 c-127 -25
-229 -60 -355 -122 -255 -126 -481 -354 -605 -610 -79 -163 -96 -233 -200
-854 -55 -329 -107 -609 -118 -638 -37 -98 -74 -148 -207 -279 -119 -117 -137
-139 -173 -215 -47 -99 -62 -162 -62 -267 0 -163 58 -300 175 -417 81 -81 161
-127 271 -155 69 -18 111 -20 403 -20 l326 0 18 -78 c48 -217 204 -416 407
-521 134 -70 204 -86 370 -86 159 0 229 15 356 77 204 99 372 311 421 531 l18
77 321 0 c287 0 329 2 398 20 112 28 190 73 277 160 122 120 179 255 179 425
0 98 -19 176 -67 275 -30 64 -56 95 -167 205 -134 132 -174 189 -210 297 -8
26 -58 305 -111 620 -106 631 -123 699 -216 879 -189 361 -547 625 -946 696
l-91 16 -4 98 c-2 80 -7 103 -24 126 -35 48 -82 73 -134 73 -32 0 -57 -7 -80
-22z m261 -603 c272 -47 516 -203 670 -427 53 -78 112 -198 138 -281 11 -38
64 -326 116 -640 94 -557 116 -661 167 -760 45 -90 124 -189 232 -293 127
-122 146 -158 146 -270 0 -120 -85 -233 -200 -264 -25 -7 -514 -9 -1472 -8
l-1433 3 -53 29 c-92 51 -142 137 -142 241 0 97 32 153 140 249 88 78 171 177
219 261 74 130 93 209 196 825 60 360 105 603 121 650 161 478 657 773 1155
685z m278 -3297 c-56 -197 -248 -338 -459 -338 -211 0 -403 141 -459 338 l-10
32 469 0 469 0 -10 -32z"/>
</g>
</svg>
