<?xml version="1.0" encoding="UTF-8"?>
<svg version="1.1" viewBox="0 0 1600 1600" width="1280" height="1280" xmlns="http://www.w3.org/2000/svg">
    <path transform="translate(357 -.137)" d="m0 0c1.02-0.00265 2.04-0.0053 3.1-0.00804 3.43-0.00768 6.87-0.00825 10.3-0.00885 2.48-0.00402 4.97-0.00845 7.45-0.0133 6.12-0.0107 12.2-0.0167 18.4-0.0207 7.33-0.00502 14.7-0.0157 22-0.0265 18.6-0.0268 37.1-0.0419 55.7-0.0553 5.03-0.00367 10.1-0.00767 15.1-0.0118 31.2-0.0253 62.5-0.0473 93.7-0.0597 7.24-0.00292 14.5-0.00589 21.7-0.00891 1.35-5.56e-4 1.35-5.56e-4 2.72-0.00112 29.1-0.0121 58.2-0.0431 87.4-0.0848 30-0.0429 59.9-0.0694 89.9-0.0746 4.24-7.4e-4 8.48-0.00165 12.7-0.00266 0.834-1.91e-4 1.67-3.81e-4 2.53-5.78e-4 13.4-0.0035 26.8-0.0238 40.2-0.0502 13.5-0.0262 26.9-0.0338 40.4-0.0229 7.99 0.00594 16-0.00176 24-0.0298 5.99-0.0195 12-0.0123 18 0.00457 2.4 0.00278 4.81-0.00269 7.21-0.0178 47.4-0.279 90.8 16.4 125 48.6 1.35 1.17 2.7 2.34 4.06 3.5 3.76 3.27 7.23 6.78 10.7 10.3 1.97 1.94 3.98 3.76 6.09 5.55 4.03 3.45 7.74 7.18 11.4 11 2.58 2.66 2.58 2.66 5.68 4.64v2c0.534 0.205 1.07 0.41 1.62 0.621 3.38 1.96 5.81 4.64 8.51 7.44 3.57 3.94 3.57 3.94 7.88 6.94v2c0.59 0.263 1.18 0.527 1.79 0.798 2.31 1.25 3.78 2.55 5.6 4.43 0.623 0.635 1.25 1.27 1.89 1.92 0.65 0.671 1.3 1.34 1.97 2.03 4.5 4.58 9 9.05 13.9 13.2 3.11 2.74 5.97 5.73 8.86 8.7 2.03 2.08 2.03 2.08 4.98 3.92v2c0.541 0.213 1.08 0.425 1.64 0.645 3.21 1.85 5.56 4.4 8.11 7.04 3.95 4.04 7.95 7.88 12.3 11.5 3.34 2.97 6.42 6.19 9.56 9.37 2.07 2.04 4.16 3.96 6.37 5.84 3.35 2.86 6.47 5.93 9.56 9.06 3.07 3.12 6.17 6.16 9.5 9 3.85 3.28 7.38 6.85 10.9 10.5 2.61 2.63 5.25 5.15 8.07 7.55 3.85 3.28 7.38 6.85 10.9 10.5 3.22 3.25 6.56 6.27 10 9.24 3.34 2.98 6.44 6.21 9.59 9.4 2.71 2.68 5.55 5.16 8.45 7.63 2.26 2.01 4.37 4.13 6.5 6.28 2.67 2.7 5.35 5.29 8.25 7.75 4.39 3.76 8.4 7.87 12.5 12 3.53 3.55 7.15 6.92 11 10.2 2.74 2.42 5.27 5.04 7.83 7.64 1.9 1.87 3.85 3.61 5.87 5.34 3.19 2.74 6.17 5.63 9.12 8.62 2.88 2.91 5.76 5.72 8.88 8.38 4.14 3.53 7.94 7.38 11.7 11.3 2.42 2.47 4.87 4.8 7.55 6.99 2.32 1.93 4.22 3.75 6.15 6.05 1.89 2.22 3.78 4.41 5.78 6.52 38.2 40.5 43.2 92.7 43.2 146-0.00603 5-3.24e-4 9.99 0.00382 15 0.00566 8.74 0.00396 17.5-0.00269 26.2-0.00986 13-0.00818 26-0.00425 39 0.00626 21.9 0.00314 43.7-0.00559 65.6-0.00863 21.7-0.0135 43.3-0.0133 65 7.92e-6 1.36 1.56e-5 2.72 2.32e-5 4.09 3.74e-5 5.47 1.04e-4 10.9 2.06e-4 16.4 2.78e-4 15.3-1.11e-4 30.6-9.89e-4 45.9-3.97e-5 0.697-7.93e-5 1.39-1.2e-4 2.11-0.00131 22.2-0.00548 44.4-0.0117 66.5-2.03e-4 0.719-4.06e-4 1.44-6.15e-4 2.18-0.00331 11.7-0.0068 23.4-0.0103 35-0.0139 46.3-0.0205 92.6-0.0198 139 2.04e-5 1.46 4.06e-5 2.93 6.06e-5 4.39 4.02e-5 2.92 8.1e-5 5.85 1.22e-4 8.77 9.14e-5 6.56 1.76e-4 13.1 2.47e-4 19.7 1.58e-5 1.45 3.22e-5 2.9 4.93e-5 4.36 4.46e-4 38.8-0.00403 77.7-0.0104 117-1.1e-4 0.678-2.2e-4 1.36-3.34e-4 2.06-0.00201 12.3-0.00201 12.3-0.00302 18.4-0.00249 14.9-0.00444 29.8-0.00481 44.7-1.75e-5 0.67-3.51e-5 1.34-5.31e-5 2.03-6.92e-5 2.7-1.34e-4 5.4-1.97e-4 8.1-5.87e-4 25.1-0.00438 50.2-0.0145 75.3-0.00511 12.9-0.00753 25.8-6e-3 38.7 7.37e-4 8.63-0.00219 17.3-0.00804 25.9-0.00324 4.91-0.00495 9.82-0.00224 14.7 0.0258 52.1 0.0258 52.1-3.32 67.4-0.332 1.57-0.332 1.57-0.671 3.17-5.06 23.1-14.5 43.9-28.1 63.1-0.425 0.601-0.849 1.2-1.29 1.82-14.9 20.7-34.2 37.4-56.8 49.2-1.8 0.946-3.59 1.92-5.38 2.89-23.9 12.6-52.3 18.4-79.1 18.4-1.54 3e-3 -3.08 0.00688-4.63 0.0115-4.22 0.0102-8.44 0.00814-12.7 0.00394-4.6-0.00237-9.2 0.00681-13.8 0.0145-8.05 0.0118-16.1 0.0162-24.2 0.0157-12-7.94e-4 -24 0.00977-35.9 0.0224-23.9 0.0247-47.8 0.0335-71.7 0.0385-1.24 2.61e-4 -2.47 5.22e-4 -3.75 7.91e-4 -1.86 3.9e-4 -1.86 3.9e-4 -3.76 7.89e-4 -13.7 0.00308-27.5 0.00959-41.2 0.0162-41.5 0.0196-83 0.0361-125 0.0389-1.34 9.46e-5 -2.68 1.9e-4 -4.02 2.85e-4 -6.05 4.28e-4 -12.1 8.33e-4 -18.2 0.00124-2.7 1.82e-4 -5.4 3.66e-4 -8.1 5.52e-4 -1.35 9.2e-5 -2.7 1.82e-4 -4.05 2.71e-4 -42.7 0.00281-85.4 0.0245-128 0.0614-47.2 0.0408-94.5 0.0644-142 0.0647-5.04 9.68e-5 -10.1 2.64e-4 -15.1 4.8e-4 -1.24 4.41e-5 -2.48 8.82e-5 -3.76 1.34e-4 -19.9 0.00112-39.9 0.0185-59.8 0.0417-20.1 0.0229-40.1 0.027-60.2 0.0125-11.9-0.00813-23.8-0.00254-35.7 0.0232-7.97 0.0158-15.9 0.0132-23.9-0.00391-4.53-0.00922-9.06-0.0109-13.6 0.00997-20.3 0.0878-39.2-0.926-59.1-5.64-0.868-0.2-1.74-0.4-2.63-0.606-43.7-10.2-80.7-39.3-105-76.8-18.8-31.8-25-64.4-24.9-101-0.00135-2.19-0.00313-4.38-0.00531-6.57-0.00473-6.02-0.00323-12-7.22e-4 -18.1 0.00146-5.87-0.00178-11.7-0.00487-17.6-0.00623-12.2-0.00771-24.3-0.00658-36.5 0.00112-12.3 8.86e-5 -24.6-0.00357-36.9-2.3e-4 -0.778-4.59e-4 -1.56-6.96e-4 -2.36-9.42e-4 -3.17-0.0019-6.34-0.00287-9.51-0.0101-33.1-0.0132-66.1-0.0138-99.2-6.47e-5 -3.56-1.33e-4 -7.11-2.03e-4 -10.7-1.7e-5 -0.883-3.4e-5 -1.77-5.15e-5 -2.67-4.09e-4 -19.6-0.0026-39.1-0.0051-58.7-0.00103-8.06-0.00202-16.1-0.00302-24.2-1.11e-4 -0.89-2.21e-4 -1.78-3.35e-4 -2.7-0.00632-51-0.0104-102-0.00999-153 1.58e-5 -1.91 3.15e-5 -3.82 4.72e-5 -5.73 7.34e-5 -8.62 1.62e-4 -17.2 2.54e-4 -25.9 4.11e-5 -3.84 8.13e-5 -7.69 1.21e-4 -11.5 2.04e-5 -1.92 4.14e-5 -3.85 6.31e-5 -5.77 6.8e-4 -60.8-0.00664-122-0.0205-182-0.0035-15.3-0.00697-30.7-0.0103-46-2.03e-4 -0.944-4.06e-4 -1.89-6.15e-4 -2.86-0.00622-29.1-0.00998-58.2-0.0112-87.3-4e-5 -0.913-7.99e-5 -1.83-1.21e-4 -2.77-8.53e-4 -20-0.00111-40.1-8.3e-4 -60.1 9.65e-5 -7.17 1.49e-4 -14.3 1.79e-4 -21.5 7.91e-6 -1.78 1.81e-5 -3.57 3.06e-5 -5.35 1.76e-4 -28.4-0.00552-56.9-0.0142-85.3-0.00865-28.6-0.0108-57.3-0.00424-85.9 9.12e-4 -3.96 0.00176-7.92 0.00256-11.9 2.4e-4 -1.16 2.4e-4 -1.16 4.85e-4 -2.35 0.00235-12.3-2e-3 -24.6-0.00916-36.8-0.0069-12.1-0.00664-24.2 0.00119-36.2 0.00389-6.46 0.00463-12.9-0.00346-19.4-0.0073-5.88-0.00532-11.8 0.00392-17.6 0.00172-2.11 1.11e-4 -4.22-0.0053-6.33-0.0376-15.7 0.665-31.1 4.51-46.4 0.216-0.877 0.432-1.75 0.655-2.66 8.73-34.4 28.2-67.5 56.1-89.8 1.34-1.12 1.34-1.12 2.71-2.25 28.3-22.8 66-37.9 103-37.9zm-55.5 122c-12.5 14.5-17.9 32.7-17.9 51.6-0.00165 0.89-0.0033 1.78-5e-3 2.7-0.00432 2.99-0.00152 5.98 0.00123 8.98-0.00165 2.17-0.00374 4.35-0.00622 6.52-0.00558 6-0.00489 12-0.00322 18 6.55e-4 5.84-0.00338 11.7-0.00726 17.5-0.00787 12.1-0.011 24.2-0.0114 36.3-5.02e-4 12.3-0.00315 24.5-0.00841 36.8-3.3e-4 0.774-6.6e-4 1.55-1e-3 2.35-0.00135 3.15-0.00271 6.31-0.00409 9.46-0.0163 37.4-0.0227 74.7-0.0274 112-0.00238 18.6-0.00609 37.2-0.01 55.8-0.0127 59.6-0.0234 119-0.0268 179-1.62e-4 2.85-3.28e-4 5.7-4.94e-4 8.55-3.34e-4 5.72-6.64e-4 11.4-9.95e-4 17.2-3.87e-4 6.69-7.77e-4 13.4-0.00117 20.1-1.12e-4 1.92-2.24e-4 3.83-3.34e-4 5.75-0.00355 61.5-0.0186 123-0.0419 185-0.0167 44.2-0.0322 88.4-0.0367 133-9.35e-5 0.909-1.87e-4 1.82-2.83e-4 2.76-0.00202 20-0.00318 39.9-0.00353 59.9-1.36e-4 7.14-3.45e-4 14.3-5.93e-4 21.4-6.16e-5 1.78-1.2e-4 3.55-1.75e-4 5.33-9.2e-4 28.3-0.0109 56.6-0.0255 84.9-0.0146 28.5-0.0197 57-0.0116 85.6 0.00112 3.94 0.00213 7.89 0.00307 11.8 1.9e-4 0.773 3.8e-4 1.55 5.76e-4 2.34 0.00273 12.2-0.0046 24.5-0.0161 36.7-0.0111 12-0.0116 24.1-6.3e-4 36.1 0.0054 6.43 0.00606 12.9-0.00651 19.3-0.0113 5.86-0.00881 11.7 0.00467 17.6 0.00243 2.1-1.34e-4 4.2-0.0084 6.31-0.0969 26.4 5.18 48.1 23.9 67.7 20.2 19 44.7 22.2 71.4 22.2 1.47 0.00105 2.94 0.00253 4.41 0.0044 4.02 0.00387 8.04 0.00157 12.1-0.00178 4.38-0.00255 8.77 7.27e-4 13.1 0.00324 7.68 0.00361 15.4 0.00351 23 9.53e-4 11.4-0.00379 22.8-0.00185 34.2 0.00121 20.4 0.00527 40.8 0.00481 61.2 0.00192 17.9-0.00252 35.7-0.00317 53.6-0.00198 1.18 7.64e-5 2.37 1.53e-4 3.59 2.31e-4 4.81 3.11e-4 9.62 6.3e-4 14.4 9.6e-4 45.1 0.00306 90.2 2.85e-4 135-0.0051 40.1-0.00474 80.1-0.00432 120 4.61e-4 45 0.00536 90 0.00747 135 0.00439 4.8-3.21e-4 9.61-6.34e-4 14.4-9.43e-4 1.77-1.19e-4 1.77-1.19e-4 3.58-2.4e-4 17.8-0.00114 35.7 1.89e-4 53.5 0.00272 20.3 0.00287 40.6 0.00213 60.9-0.00328 11.3-0.00293 22.7-0.00314 34 6.46e-4 7.6 0.00226 15.2 8.22e-4 22.8-0.0035 4.32-0.00236 8.63-0.00323 12.9 4.06e-4 15.3 0.0119 30.6-0.0227 45.9-0.537 1.08-0.0335 2.15-0.067 3.26-0.102 21.4-0.838 40.5-9.64 55.3-25.2 16.1-18.9 20.6-39.6 20.5-63.9 0.00179-1.66 0.00445-3.32 0.0079-4.98 0.00693-4.55 0.00148-9.1-0.00606-13.7-0.00599-4.95-3.36e-4 -9.91 0.00382-14.9 0.00568-8.68 0.00394-17.4-0.00269-26-0.00982-12.9-0.00818-25.8-0.00425-38.7 0.00647-22.4 0.00258-44.8-0.0064-67.1-0.00834-20.8-0.0127-41.7-0.0125-62.5 7.92e-6 -1.35 1.56e-5 -2.7 2.32e-5 -4.05 3.74e-5 -5.43 1.04e-4 -10.9 2.06e-4 -16.3 2.78e-4 -15.2-1.11e-4 -30.3-9.89e-4 -45.5-5.95e-5 -1.04-5.95e-5 -1.04-1.2e-4 -2.09-0.00131-22-0.00548-44-0.0117-66-2.03e-4 -0.713-4.06e-4 -1.43-6.15e-4 -2.16-0.00331-11.6-0.0068-23.2-0.0103-34.8-0.0139-46-0.0205-92-0.0198-138 2.04e-5 -1.45 4.06e-5 -2.91 6.06e-5 -4.36 4.02e-5 -2.91 8.1e-5 -5.81 1.22e-4 -8.72 9.14e-5 -6.51 1.76e-4 -13 2.47e-4 -19.5 1.58e-5 -1.44 3.22e-5 -2.89 4.93e-5 -4.33 4.45e-4 -38.5-0.00402-77-0.0104-116-1.1e-4 -0.672-2.2e-4 -1.34-3.34e-4 -2.04-0.0015-9.12-0.0015-9.12-0.00302-18.2-0.0025-14.8-0.00444-29.6-0.00481-44.4-1.75e-5 -0.667-3.51e-5 -1.33-5.31e-5 -2.02-6.92e-5 -2.69-1.34e-4 -5.38-1.97e-4 -8.07-5.85e-4 -24.9-0.00434-49.8-0.0145-74.7-0.00513-12.8-0.00752-25.7-6e-3 -38.5 7.31e-4 -8.55-0.00214-17.1-0.00804-25.7-0.00327-4.89-0.00491-9.77-0.00224-14.7 0.00239-4.43 2.77e-4 -8.87-0.00562-13.3-0.00131-1.6-9.08e-4 -3.21 0.00132-4.81 0.00276-2.16-5.18e-4 -4.32-0.00544-6.48-4.37e-4 -1.8-4.37e-4 -1.8-8.83e-4 -3.64 0.177-2.58 0.177-2.58-1.13-3.66-1.56-0.1-3.12-0.13-4.68-0.133-1.02-0.00424-2.04-0.00848-3.09-0.0129-1.13 3.86e-4 -2.26 7.72e-4 -3.43 0.00117-1.19-0.00353-2.38-0.00705-3.61-0.0107-3.32-0.00887-6.65-0.0133-9.97-0.0158-3.58-0.00388-7.16-0.0135-10.7-0.0226-6.21-0.015-12.4-0.0265-18.6-0.0359-8.99-0.0139-18-0.0351-27-0.0584-14.6-0.038-29.2-0.0729-43.8-0.105-1.31-0.00285-1.31-0.00285-2.65-0.00576-12.4-0.0268-24.8-0.0507-37.2-0.0734-1.31-0.0024-1.31-0.0024-2.64-0.00484-0.871-0.00159-1.74-0.00319-2.64-0.00483-14.5-0.0268-29.1-0.0612-43.6-0.102-8.96-0.0247-17.9-0.0431-26.9-0.0532-6.15-0.00742-12.3-0.022-18.5-0.0421-3.55-0.0113-7.09-0.0195-10.6-0.019-3.86 5.12e-4 -7.71-0.0144-11.6-0.0306-1.11 0.00262-2.21 0.00523-3.35 0.00793-27.2-0.177-50.7-9.98-71.4-27.3-0.83-0.637-1.66-1.27-2.52-1.93-20.3-16.9-30.4-44.7-33.2-70-0.908-10.1-0.716-20.3-0.709-30.4-0.00904-2.68-0.0192-5.37-0.0309-8.05-0.0226-5.73-0.0346-11.5-0.0391-17.2-0.00651-8.29-0.0295-16.6-0.0563-24.9-0.0431-13.4-0.0732-26.9-0.0948-40.3-0.0211-13-0.0484-26.1-0.084-39.1-0.0033-1.21-0.0033-1.21-0.00666-2.45-0.0111-4.05-0.0223-8.1-0.0335-12.1-0.0929-33.5-0.165-67-0.222-100-53.7-0.0342-107-0.0661-161-0.0847-0.795-2.76e-4 -1.59-5.52e-4 -2.41-8.37e-4 -17.3-0.00599-34.5-0.0115-51.8-0.0166-8.47-0.00249-16.9-0.00509-25.4-0.00773-0.843-2.62e-4 -1.69-5.23e-4 -2.55-7.92e-4 -27.3-0.00852-54.6-0.0235-81.9-0.0419-28.1-0.0189-56.1-0.0312-84.2-0.0352-3.97-5.76e-4 -7.93-0.00123-11.9-0.00192-0.781-1.35e-4 -1.56-2.7e-4 -2.37-4.09e-4 -12.6-0.00236-25.1-0.0116-37.7-0.0235-12.6-0.0118-25.3-0.0163-37.9-0.0133-6.84 0.00139-13.7-4.26e-4 -20.5-0.0114-6.27-0.00974-12.5-0.0102-18.8-0.00339-2.26 8.44e-4 -4.53-0.00168-6.79-0.00797-30.6-0.0799-53.3 5.87-74.9 28.6zm713 18.6c-0.0701 28.7-0.123 57.4-0.155 86-0.0155 13.3-0.0366 26.6-0.0709 39.9-0.0299 11.6-0.0493 23.2-0.0559 34.8-0.00391 6.14-0.0131 12.3-0.0349 18.4-0.0204 5.78-0.0266 11.6-0.0221 17.4-8.25e-4 2.12-0.00678 4.24-0.0183 6.37-0.015 2.9-0.0113 5.8-0.00315 8.7-0.00874 0.837-0.0175 1.67-0.0265 2.54 0.0444 5.84 0.703 11.9 4.8 16.4 3.95 3.42 7.1 4.54 12.2 4.64 0.97 0.0199 1.94 0.0399 2.94 0.0604 1.08 0.0167 2.17 0.0334 3.29 0.0507 1.18 0.0209 2.35 0.0417 3.56 0.0632 3.35 0.0561 6.7 0.107 10.1 0.153 2.16 0.03 4.33 0.0615 6.49 0.093 32.6 0.465 65.3 0.484 98 0.496 4.28 0.00163 8.55 0.00456 12.8 0.00871 31.8 0.0305 63.5-0.0283 95.3-1.13-1.09-3.26-1.68-3.79-4.25-5.88-3.96-3.35-7.61-6.93-11.2-10.6-4.07-4.12-8.19-8.08-12.6-11.8-3.03-2.68-5.83-5.6-8.67-8.48-2.64-2.6-5.41-5.01-8.23-7.42-2.93-2.61-5.62-5.43-8.32-8.27-1.54-1.73-1.54-1.73-3.66-1.5-0.33-0.99-0.66-1.98-1-3-1.49-1.51-1.49-1.51-3.38-3-4.24-3.58-8.11-7.44-11.9-11.4-1.19-1.22-2.43-2.39-3.68-3.56h-2v-2c-1.48-1.5-1.48-1.5-3.44-3.06-3.17-2.69-6.15-5.47-9.06-8.44-3.4-3.45-6.92-6.67-10.6-9.82-1.88-1.66-3.64-3.39-5.4-5.18-2.25-2.29-4.55-4.43-7-6.5-5.1-4.36-9.73-9.21-14.4-14-0.63-0.641-1.26-1.28-1.91-1.94-0.567-0.584-1.13-1.17-1.72-1.77-1.41-1.48-1.41-1.48-3.48-1.27v-2c-1.55-1.57-1.55-1.57-3.56-3.19-2.76-2.35-5.4-4.72-7.94-7.31-2.37-2.41-4.81-4.67-7.38-6.88-3.01-2.59-5.84-5.3-8.62-8.12-3.31-3.36-6.73-6.47-10.3-9.53-3.32-2.99-6.42-6.19-9.51-9.42-1.19-1.22-2.43-2.39-3.68-3.56h-2c-0.33-0.99-0.66-1.98-1-3-1.52-1.54-1.52-1.54-3.44-3.06-3.35-2.84-6.48-5.81-9.56-8.94-3.56-3.61-7.22-6.99-11.1-10.3-2.77-2.45-5.32-5.1-7.92-7.73-2.62-2.58-5.39-4.98-8.19-7.37-1.65-1.45-3.18-2.96-4.7-4.55-1.87-2.29-1.87-2.29-4.12-2.06-0.33-0.99-0.66-1.98-1-3-1.65-1.36-3.31-2.69-5-4-0.33-0.66-0.66-1.32-1-2h-3z" fill="#000002"/>
    <path transform="translate(456 625)" d="m0 0c1.18-0.00291 2.35-0.00581 3.57-0.00881 3.25-0.00602 6.5-0.00315 9.75 0.00356 3.54 0.00509 7.09-0.00145 10.6-0.00649 6.2-0.00721 12.4-0.00701 18.6-0.00191 9.23 0.00757 18.5 0.00369 27.7-0.00242 16.5-0.0105 33-0.00962 49.4-0.00384 14.4 0.00503 28.8 0.00634 43.3 0.00395 1.44-2.29e-4 1.44-2.29e-4 2.9-4.63e-4 3.88-6.23e-4 7.77-0.00126 11.7-0.00192 36.4-0.00612 72.9-5.72e-4 109 0.0102 32.4 0.00949 64.7 0.00864 97.1-9.22e-4 36.4-0.0107 72.7-0.015 109-0.00878 3.88 6.41e-4 7.75 0.00127 11.6 0.00189 1.43 2.37e-4 1.43 2.37e-4 2.89 4.79e-4 14.4 0.00227 28.8-3.84e-4 43.2-0.00544 16.4-0.00572 32.8-0.00429 49.2 0.00656 9.17 0.00587 18.3 0.00626 27.5-0.00129 6.13-0.00449 12.3-0.00169 18.4 0.00701 3.49 0.00475 6.98 0.0064 10.5-8.12e-4 3.77-0.00608 7.53 1.57e-4 11.3 0.00944 1.08-0.00468 2.15-0.00936 3.26-0.0142 16.1 0.0792 28.8 3.52 41 14.3 9.57 10.6 13.1 21.9 13 36-0.826 13.1-7.39 24.3-17 33-10.4 8.03-22.6 10.6-35.5 10.5-1.79 0.00872-1.79 0.00872-3.63 0.0176-3.29 0.012-6.59 0.00633-9.88-0.00711-3.59-0.0102-7.19 0.00292-10.8 0.013-6.29 0.0144-12.6 0.014-18.9 0.00381-9.36-0.0152-18.7-0.00738-28.1 0.00483-16.7 0.021-33.4 0.0192-50.1 0.00768-14.6-0.0101-29.2-0.0127-43.9-0.00791-1.46 4.58e-4 -1.46 4.58e-4 -2.94 9.26e-4 -3.94 0.00125-7.88 0.00252-11.8 0.00384-36.9 0.0122-73.9 0.00115-111-0.0204-32.8-0.019-65.6-0.0173-98.4 0.00184-36.9 0.0214-73.8 0.0299-111 0.0176-3.93-0.00128-7.86-0.00253-11.8-0.00377-0.968-3.16e-4 -1.94-6.33e-4 -2.93-9.59e-4 -14.6-0.00455-29.2 7.67e-4 -43.8 0.0109-16.6 0.0114-33.2 0.00857-49.9-0.0131-9.3-0.0117-18.6-0.0125-27.9 0.00258-6.21 0.00898-12.4 0.00337-18.6-0.014-3.54-0.0095-7.08-0.0128-10.6 0.00162-3.82 0.0122-7.64-3.26e-4 -11.5-0.0189-1.09 0.00936-2.18 0.0187-3.3 0.0284-13.7-0.132-24.9-4.44-34.7-13.9-8.76-9.29-13.5-19.6-14-32.5 0.393-12.7 5.78-26.1 15-34.9 12.6-9.93 25.9-12.5 41.6-12.4z" fill="#000002"/>
    <path transform="translate(456 875)" d="m0 0c1.17-0.00175 2.35-0.00351 3.55-0.00531 3.26-0.00385 6.51-0.00323 9.77-7.22e-4 3.54 0.00163 7.09-0.00251 10.6-0.00591 6.21-0.00515 12.4-0.00657 18.6-0.00554 9.23 0.00152 18.5-0.00264 27.7-0.00787 17.5-0.00968 34.9-0.0125 52.4-0.0131 13.5-4.59e-4 27-0.00252 40.4-0.0057 3.88-8.98e-4 7.76-0.00179 11.6-0.00267 0.964-2.21e-4 1.93-4.42e-4 2.92-6.7e-4 27.1-0.00616 54.2-0.0101 81.4-0.00966 1.02 1.56e-5 2.05 3.12e-5 3.1 4.72e-5 5.18 8.31e-5 10.4 1.82e-4 15.6 2.85e-4 1.54 2.99e-5 1.54 2.99e-5 3.12 6.04e-5 2.08 4.04e-5 4.16 8.22e-5 6.25 1.25e-4 32.4 6.13e-4 64.8-0.00689 97.2-0.0206 36.4-0.0154 72.8-0.024 109-0.023 3.88 7.46e-5 7.76 1.23e-4 11.6 1.54e-4 0.955 1.17e-5 1.91 2.33e-5 2.89 3.53e-5 15.4 3.08e-5 30.8-0.00636 46.1-0.015 15.5-0.00848 30.9-0.00947 46.4-0.00289 9.18 0.0037 18.4 0.00186 27.5-0.00794 6.13-6e-3 12.3-0.00471 18.4 0.00247 3.49 0.00388 6.99 0.00465 10.5-0.00346 3.77-0.00705 7.54-0.00177 11.3 0.00656 1.08-0.00497 2.15-0.00994 3.26-0.0151 16.1 0.0751 28.8 3.51 41 14.3 9.57 10.6 13.1 21.9 13 36-0.826 13.1-7.39 24.3-17 33-10.4 8.03-22.6 10.6-35.5 10.5-1.79 0.00872-1.79 0.00872-3.63 0.0176-3.29 0.012-6.59 0.00633-9.88-0.00711-3.59-0.0102-7.19 0.00292-10.8 0.013-6.29 0.0144-12.6 0.014-18.9 0.00381-9.36-0.0152-18.7-0.00738-28.1 0.00483-16.7 0.021-33.4 0.0192-50.1 0.00768-14.6-0.0101-29.2-0.0127-43.9-0.00791-1.46 4.58e-4 -1.46 4.58e-4 -2.94 9.26e-4 -3.94 0.00125-7.88 0.00252-11.8 0.00384-36.9 0.0122-73.9 0.00115-111-0.0204-32.8-0.019-65.6-0.0173-98.4 0.00184-36.9 0.0214-73.8 0.0299-111 0.0176-3.93-0.00128-7.86-0.00253-11.8-0.00377-0.968-3.16e-4 -1.94-6.33e-4 -2.93-9.59e-4 -14.6-0.00455-29.2 7.67e-4 -43.8 0.0109-16.6 0.0114-33.2 0.00857-49.9-0.0131-9.3-0.0117-18.6-0.0125-27.9 0.00258-6.21 0.00898-12.4 0.00337-18.6-0.014-3.54-0.0095-7.08-0.0128-10.6 0.00162-3.82 0.0122-7.64-3.26e-4 -11.5-0.0189-1.09 0.00936-2.18 0.0187-3.3 0.0284-13.7-0.132-24.9-4.44-34.7-13.9-8.59-9.11-13.5-19.3-13.9-32 0.427-12.5 5.02-24.7 13.6-33.9 12.4-11.1 26.4-13.8 42.4-13.7z" fill="#000002"/>
    <path transform="translate(454 1125)" d="m0 0c0.945-0.00227 1.89-0.00453 2.86-0.00687 3.16-0.00631 6.31-0.00551 9.47-0.00469 2.27-0.00299 4.53-0.0064 6.8-0.0102 6.15-0.00883 12.3-0.0112 18.5-0.0118 3.85-7.11e-4 7.69-0.00285 11.5-0.0055 12.7-0.00877 25.5-0.0134 38.2-0.0127 1.03 5.99e-5 1.03 5.99e-5 2.08 1.21e-4 0.687 4.09e-5 1.37 8.18e-5 2.08 1.24e-4 11.1 4.06e-4 22.2-0.00916 33.4-0.0233 11.4-0.0144 22.9-0.0211 34.3-0.0204 6.41 2.55e-4 12.8-0.00257 19.2-0.0132 6.04-0.00971 12.1-0.00974 18.1-0.00248 2.21 0.00104 4.42-0.0013 6.63-0.00736 19.7-0.0505 36.1 0.492 51.1 14.9 9.22 9.9 13.6 21.8 13.2 35.3-1.58 13-7.36 24.2-17 33-14.1 10.8-29.6 10.6-46.5 10.5-2.37 0.00543-4.73 0.0126-7.1 0.0212-6.39 0.0182-12.8 0.0112-19.2-0.00152-4-0.00606-8-0.00576-12-0.00204-0.666 6.13e-4 -1.33 0.00123-2.02 0.00186-1.35 0.00128-2.71 0.00258-4.06 0.00389-12.7 0.0114-25.3-0.00166-38-0.0232-10.8-0.0179-21.7-0.0148-32.5 0.00368-12.6 0.0215-25.2 0.0298-37.9 0.0176-1.35-0.00127-2.7-0.00253-4.05-0.00377-0.995-9.26e-4 -0.995-9.26e-4 -2.01-0.00187-4.65-0.00344-9.3 0.00254-14 0.0118-6.27 0.0116-12.5 0.00346-18.8-0.0196-2.29-0.00526-4.59-0.00381-6.88 0.00505-17.6 0.0617-32-0.817-45.3-13.7-8.56-9.15-13.7-19.6-14.2-32.3 0.427-12.5 5.02-24.7 13.6-33.9 11.7-10.4 25.1-13.8 40.4-13.8z" fill="#000002"/>
</svg>
