<svg width="20" height="18" viewBox="0 0 20 18" fill="none" xmlns="http://www.w3.org/2000/svg">
<path fill-rule="evenodd" clip-rule="evenodd" d="M0 6.94487C0 4.51394 0 3.29847 0.484416 2.36998C0.910519 1.55325 1.59043 0.889233 2.42671 0.473091C3.37743 0 4.62199 0 7.11111 0H12.8889C15.378 0 16.6226 0 17.5733 0.473091C18.4096 0.889233 19.0895 1.55325 19.5156 2.36998C20 3.29847 20 4.51394 20 6.94487V8.24703C20 10.678 20 11.8934 19.5156 12.8219C19.0895 13.6386 18.4096 14.3027 17.5733 14.7188C16.6226 15.1919 15.378 15.1919 12.8889 15.1919H4.90468C4.61 15.1919 4.32738 15.3062 4.11901 15.5097L1.89678 17.68C1.19682 18.3636 0 17.8794 0 16.9127V15.1919V9.76622V6.94487ZM6.66667 4.34054C6.05302 4.34054 5.55556 4.82637 5.55556 5.42568C5.55556 6.02498 6.05302 6.51081 6.66667 6.51081H13.3333C13.947 6.51081 14.4444 6.02498 14.4444 5.42568C14.4444 4.82637 13.947 4.34054 13.3333 4.34054H6.66667ZM6.66667 8.68108C6.05302 8.68108 5.55556 9.16692 5.55556 9.76622C5.55556 10.3655 6.05302 10.8514 6.66667 10.8514H10C10.6136 10.8514 11.1111 10.3655 11.1111 9.76622C11.1111 9.16692 10.6136 8.68108 10 8.68108H6.66667Z" fill="url(#paint0_linear_6411_1409)"/>
<defs>
<linearGradient id="paint0_linear_6411_1409" x1="10" y1="0" x2="10" y2="18" gradientUnits="userSpaceOnUse">
<stop stop-color="#FF768F"/>
<stop offset="1" stop-color="#DE3A58"/>
</linearGradient>
</defs>
</svg>
