<svg width="26" height="27" viewBox="0 0 26 27" fill="none" xmlns="http://www.w3.org/2000/svg">
<path d="M5.34029 11.2455L3.85007 11.0745L3.85007 11.0745L5.34029 11.2455ZM5.23432 12.0766L3.75468 11.8303L5.23432 12.0766ZM3.8762 15.4451L5.15122 16.2352L5.15122 16.2352L3.8762 15.4451ZM4.31209 14.7219L2.99924 13.9963L4.31209 14.7219ZM20.6597 11.2455L19.1695 11.4166L19.1695 11.4166L20.6597 11.2455ZM20.7657 12.0766L22.2453 11.8303L20.7657 12.0766ZM22.1238 15.4451L23.3988 14.6549L23.3988 14.6549L22.1238 15.4451ZM21.6879 14.7219L23.0008 13.9963L21.6879 14.7219ZM3.10731 16.6858L1.83229 15.8957L1.83229 15.8957L3.10731 16.6858ZM22.8927 16.6858L21.6177 17.476L21.6177 17.476L22.8927 16.6858ZM20.3274 8.34981L21.8176 8.1788L21.8176 8.1788L20.3274 8.34981ZM5.67261 8.34981L7.16283 8.52083L7.16283 8.52083L5.67261 8.34981ZM9.22105 19.8889C9.22105 19.0605 8.54947 18.3889 7.72105 18.3889C6.89262 18.3889 6.22105 19.0605 6.22105 19.8889H9.22105ZM19.779 19.8889C19.779 19.0605 19.1074 18.3889 18.279 18.3889C17.4505 18.3889 16.779 19.0605 16.779 19.8889L19.779 19.8889ZM21.0196 18.3889H4.98041V21.3889H21.0196V18.3889ZM18.8372 8.52083L19.1695 11.4166L22.1499 11.0745L21.8176 8.1788L18.8372 8.52083ZM6.83051 11.4166L7.16283 8.52083L4.18239 8.1788L3.85007 11.0745L6.83051 11.4166ZM4.38233 17.476L5.15122 16.2352L2.60117 14.655L1.83229 15.8957L4.38233 17.476ZM20.8488 16.2352L21.6177 17.476L24.1677 15.8957L23.3988 14.6549L20.8488 16.2352ZM3.85007 11.0745C3.80054 11.5062 3.78115 11.6712 3.75468 11.8303L6.71397 12.3228C6.75577 12.0717 6.78427 11.8195 6.83051 11.4166L3.85007 11.0745ZM5.15122 16.2352C5.3668 15.8873 5.50146 15.6709 5.62495 15.4474L2.99924 13.9963C2.92024 14.1393 2.8318 14.2828 2.60117 14.655L5.15122 16.2352ZM3.75468 11.8303C3.62886 12.5863 3.37398 13.3182 2.99924 13.9963L5.62495 15.4474C6.16342 14.473 6.53184 13.4172 6.71397 12.3228L3.75468 11.8303ZM19.1695 11.4166C19.2157 11.8195 19.2442 12.0717 19.286 12.3228L22.2453 11.8303C22.2188 11.6712 22.1995 11.5061 22.1499 11.0745L19.1695 11.4166ZM23.3988 14.6549C23.1682 14.2828 23.0798 14.1393 23.0008 13.9963L20.375 15.4474C20.4985 15.6709 20.6332 15.8873 20.8488 16.2352L23.3988 14.6549ZM19.286 12.3228C19.4682 13.4172 19.8366 14.473 20.375 15.4474L23.0008 13.9963C22.626 13.3182 22.3711 12.5863 22.2453 11.8303L19.286 12.3228ZM4.98041 18.3889C4.07597 18.3889 3.56477 18.3851 3.23016 18.3371C2.89559 18.289 3.19706 18.2554 3.39581 18.5952L0.806105 20.1096C1.31857 20.986 2.20451 21.2205 2.80362 21.3066C3.40269 21.3926 4.17436 21.3889 4.98041 21.3889V18.3889ZM1.83229 15.8957C1.41967 16.5615 1.01381 17.2085 0.777644 17.7599C0.536948 18.3218 0.282822 19.2148 0.806105 20.1096L3.39581 18.5952C3.48289 18.7441 3.50583 18.9025 3.49881 19.0084C3.49403 19.0805 3.4788 19.073 3.53531 18.9411C3.66074 18.6483 3.91491 18.2302 4.38233 17.476L1.83229 15.8957ZM21.0196 21.3889C21.8256 21.3889 22.5973 21.3926 23.1964 21.3066C23.7955 21.2205 24.6814 20.986 25.1939 20.1096L22.6042 18.5952C22.8029 18.2554 23.1044 18.289 22.7698 18.3371C22.4352 18.3851 21.924 18.3889 21.0196 18.3889V21.3889ZM21.6177 17.476C22.0851 18.2302 22.3393 18.6483 22.4647 18.9411C22.5212 19.073 22.506 19.0805 22.5012 19.0084C22.4942 18.9025 22.5171 18.7441 22.6042 18.5952L25.1939 20.1096C25.7172 19.2148 25.4631 18.3218 25.2224 17.7599C24.9862 17.2085 24.5803 16.5615 24.1677 15.8957L21.6177 17.476ZM13 3.5C16.0328 3.5 18.5135 5.70073 18.8372 8.52083L21.8176 8.1788C21.3115 3.76898 17.4805 0.5 13 0.5V3.5ZM13 0.5C8.51951 0.5 4.68846 3.76898 4.18239 8.1788L7.16283 8.52083C7.48646 5.70073 9.9672 3.5 13 3.5V0.5ZM6.22105 19.8889C6.22105 20.7639 6.39912 21.6292 6.74379 22.4348L9.50198 21.2548C9.31606 20.8203 9.22105 20.3563 9.22105 19.8889H6.22105ZM6.74379 22.4348C7.08841 23.2404 7.59215 23.9691 8.22383 24.5806L10.3106 22.4253C9.96189 22.0877 9.68795 21.6895 9.50198 21.2548L6.74379 22.4348ZM8.22383 24.5806C8.8554 25.1921 9.60257 25.6747 10.4215 26.0032L11.5382 23.2187C11.0761 23.0334 10.6594 22.7631 10.3106 22.4253L8.22383 24.5806ZM10.4215 26.0032C11.2403 26.3315 12.1164 26.5 13 26.5L13 23.5C12.4971 23.5 12.0003 23.404 11.5382 23.2187L10.4215 26.0032ZM13 26.5C13.8836 26.5 14.7597 26.3315 15.5785 26.0032L14.4618 23.2187C13.9997 23.404 13.5029 23.5 13 23.5L13 26.5ZM15.5785 26.0032C16.3974 25.6747 17.1446 25.1921 17.7762 24.5806L15.6894 22.4253C15.3406 22.7631 14.9239 23.0334 14.4618 23.2187L15.5785 26.0032ZM17.7762 24.5806C18.4078 23.9691 18.9116 23.2403 19.2562 22.4348L16.498 21.2548C16.3121 21.6895 16.0381 22.0877 15.6894 22.4253L17.7762 24.5806ZM19.2562 22.4348C19.6009 21.6292 19.779 20.7639 19.779 19.8889L16.779 19.8889C16.779 20.3563 16.6839 20.8203 16.498 21.2548L19.2562 22.4348Z" fill="#747474"/>
</svg>
