<svg width="22" height="30" viewBox="0 0 22 30" fill="none" xmlns="http://www.w3.org/2000/svg">
<path fill-rule="evenodd" clip-rule="evenodd" d="M3.22666 3.22666V26.1702L9.0514 21.3978C10.0424 20.5858 11.4686 20.5858 12.4597 21.3978L18.2844 26.1702V3.22666H3.22666ZM0 2.68888C0 1.20386 1.20385 0 2.68888 0H18.8222C20.3072 0 21.5111 1.20385 21.5111 2.68888V27.306C21.5111 29.5753 18.8734 30.8241 17.118 29.3859L10.7555 24.1729L4.39301 29.3859C2.63768 30.8241 0 29.5753 0 27.306V2.68888ZM11.0964 23.8937C11.0961 23.8939 11.0959 23.894 11.0957 23.8942L11.0964 23.8937Z" fill="url(#paint0_linear_5718_599)"/>
<defs>
<linearGradient id="paint0_linear_5718_599" x1="10.7555" y1="0" x2="10.7555" y2="30" gradientUnits="userSpaceOnUse">
<stop stop-color="#DB3956"/>
<stop offset="1" stop-color="#9F142F"/>
</linearGradient>
</defs>
</svg>
