<svg width="16" height="16" viewBox="0 0 16 16" fill="none" xmlns="http://www.w3.org/2000/svg">
<path d="M9.7888 5.49091C9.71997 5.78298 9.94961 6.06121 10.2595 6.06121H13.7273C14.4302 6.06121 15 6.67691 15 7.43639V8.88338C15 9.06298 14.9674 9.24086 14.9042 9.40699L12.935 14.5742C12.8368 14.8319 12.6044 15 12.3466 15H1.63636C1.28491 15 1 14.6922 1 14.3124V7.43639C1 7.05666 1.28491 6.74881 1.63636 6.74881H3.85208C4.05885 6.74881 4.25273 6.64026 4.37197 6.45774L7.84231 1.14557C7.93299 1.00676 8.10392 0.960346 8.24455 1.03633L9.39898 1.66C10.0682 2.02156 10.4138 2.83814 10.2292 3.62162L9.7888 5.49091ZM3.54545 8.59066C3.54545 8.33293 3.32932 8.12399 3.0627 8.12399H2.75549C2.48887 8.12399 2.27273 8.33293 2.27273 8.59066V13.1581C2.27273 13.4159 2.48887 13.6248 2.75549 13.6248H3.0627C3.32932 13.6248 3.54545 13.4159 3.54545 13.1581V8.59066Z" fill="url(#paint0_linear_2412_17680)" stroke="url(#paint1_linear_2412_17680)" stroke-width="0.5"/>
<defs>
<linearGradient id="paint0_linear_2412_17680" x1="8" y1="1" x2="8" y2="15" gradientUnits="userSpaceOnUse">
<stop offset="0.317708" stop-color="#9F132E"/>
<stop offset="1" stop-color="#DE3A58"/>
</linearGradient>
<linearGradient id="paint1_linear_2412_17680" x1="8" y1="1" x2="8" y2="15" gradientUnits="userSpaceOnUse">
<stop offset="0.317708" stop-color="#9F132E"/>
<stop offset="1" stop-color="#DE3A58"/>
</linearGradient>
</defs>
</svg>
