<svg width="16" height="17" viewBox="0 0 16 17" fill="none" xmlns="http://www.w3.org/2000/svg">
<path d="M9.92157 5.20794C9.78436 5.83188 10.2594 6.42273 10.8982 6.42273H13.7273C14.4302 6.42273 15 7.0824 15 7.89613V9.44648C15 9.63891 14.9674 9.8295 14.9042 10.0075L12.935 15.5438C12.8368 15.8199 12.6044 16 12.3466 16H1.63636C1.28491 16 1 15.6702 1 15.2633V7.89613C1 7.48928 1.28491 7.15944 1.63636 7.15944H3.85208C4.05885 7.15944 4.25273 7.04314 4.37197 6.84757L7.84231 1.15597C7.93299 1.00725 8.10392 0.957513 8.24455 1.03892L9.39898 1.70714C10.0682 2.09453 10.4138 2.96944 10.2292 3.80888L9.92157 5.20794ZM5.21059 7.97558C4.9956 8.22765 4.81818 8.52731 4.81818 8.85861V13.5266C4.81818 14.0789 5.2659 14.5266 5.81818 14.5266H11.2147C11.6378 14.5266 12.0151 14.2603 12.1569 13.8617L13.6695 9.60905C13.7077 9.50146 13.7273 9.38812 13.7273 9.27393V8.89613C13.7273 8.34385 13.2796 7.89613 12.7273 7.89613H9.65442C8.82415 7.89613 8.21624 6.9907 8.42102 6.05922L8.99585 3.44537C9.03275 3.27748 8.96365 3.1025 8.82975 3.02502C8.59587 2.88964 8.29668 2.96579 8.15599 3.19653L5.41175 7.69728C5.35088 7.79712 5.28352 7.89006 5.21059 7.97558ZM3.54545 9.26921C3.54545 8.91776 3.26055 8.63285 2.90909 8.63285C2.55764 8.63285 2.27273 8.91776 2.27273 9.26921V13.8902C2.27273 14.2417 2.55764 14.5266 2.90909 14.5266C3.26055 14.5266 3.54545 14.2417 3.54545 13.8902V9.26921Z" fill="url(#paint0_linear_2126_17340)" stroke="url(#paint1_linear_2126_17340)" stroke-width="0.5"/>
<defs>
<linearGradient id="paint0_linear_2126_17340" x1="8" y1="1" x2="8" y2="16" gradientUnits="userSpaceOnUse">
<stop offset="0.317708" stop-color="#9F132E"/>
<stop offset="1" stop-color="#DE3A58"/>
</linearGradient>
<linearGradient id="paint1_linear_2126_17340" x1="8" y1="1" x2="8" y2="16" gradientUnits="userSpaceOnUse">
<stop offset="0.317708" stop-color="#9F132E"/>
<stop offset="1" stop-color="#DE3A58"/>
</linearGradient>
</defs>
</svg>
