<svg width="16" height="16" viewBox="0 0 16 16" fill="none" xmlns="http://www.w3.org/2000/svg">
<path d="M9.7888 10.5091C9.71997 10.217 9.94961 9.93879 10.2595 9.93879L13.7273 9.93879C14.4302 9.93879 15 9.32309 15 8.56361L15 7.11662C15 6.93702 14.9674 6.75914 14.9042 6.59301L12.935 1.42576C12.8368 1.16812 12.6044 0.999999 12.3466 0.999999L1.63636 1C1.28491 1 0.999999 1.30784 0.999999 1.6876L0.999999 8.56361C0.999999 8.94334 1.28491 9.25119 1.63636 9.25119L3.85208 9.25119C4.05885 9.25119 4.25273 9.35974 4.37197 9.54226L7.84231 14.8544C7.93299 14.9932 8.10392 15.0397 8.24455 14.9637L9.39898 14.34C10.0682 13.9784 10.4138 13.1619 10.2292 12.3784L9.7888 10.5091ZM3.54545 7.40934C3.54545 7.66707 3.32932 7.87601 3.0627 7.87601L2.75549 7.87601C2.48887 7.87601 2.27273 7.66707 2.27273 7.40934L2.27273 2.84187C2.27273 2.58413 2.48886 2.3752 2.75548 2.3752L3.06269 2.3752C3.32931 2.3752 3.54545 2.58414 3.54545 2.84187L3.54545 7.40934Z" fill="url(#paint0_linear_2412_17681)" stroke="url(#paint1_linear_2412_17681)" stroke-width="0.5"/>
<defs>
<linearGradient id="paint0_linear_2412_17681" x1="8" y1="15" x2="8" y2="0.999999" gradientUnits="userSpaceOnUse">
<stop offset="0.317708" stop-color="#9F132E"/>
<stop offset="1" stop-color="#DE3A58"/>
</linearGradient>
<linearGradient id="paint1_linear_2412_17681" x1="8" y1="15" x2="8" y2="0.999999" gradientUnits="userSpaceOnUse">
<stop offset="0.317708" stop-color="#9F132E"/>
<stop offset="1" stop-color="#DE3A58"/>
</linearGradient>
</defs>
</svg>
