<svg width="16" height="17" viewBox="0 0 16 17" fill="none" xmlns="http://www.w3.org/2000/svg">
<path d="M9.92157 11.7921C9.78436 11.1681 10.2594 10.5773 10.8982 10.5773H13.7273C14.4302 10.5773 15 9.9176 15 9.10387V7.55352C15 7.36109 14.9674 7.1705 14.9042 6.99251L12.935 1.45617C12.8368 1.18013 12.6044 0.999999 12.3466 0.999999H1.63636C1.28491 0.999999 1 1.32983 1 1.73672V9.10387C1 9.51072 1.28491 9.84056 1.63636 9.84056H3.85208C4.05885 9.84056 4.25273 9.95686 4.37197 10.1524L7.84231 15.844C7.93299 15.9928 8.10392 16.0425 8.24455 15.9611L9.39898 15.2929C10.0682 14.9055 10.4138 14.0306 10.2292 13.1911L9.92157 11.7921ZM5.21059 9.02442C4.9956 8.77235 4.81818 8.47269 4.81818 8.14139V3.47343C4.81818 2.92114 5.2659 2.47343 5.81818 2.47343H11.2147C11.6378 2.47343 12.0151 2.73969 12.1569 3.13832L13.6695 7.39095C13.7077 7.49854 13.7273 7.61188 13.7273 7.72607V8.10387C13.7273 8.65615 13.2796 9.10387 12.7273 9.10387H9.65442C8.82415 9.10387 8.21624 10.0093 8.42102 10.9408L8.99585 13.5546C9.03275 13.7225 8.96365 13.8975 8.82975 13.975C8.59587 14.1104 8.29668 14.0342 8.15599 13.8035L5.41175 9.30272C5.35088 9.20288 5.28352 9.10994 5.21059 9.02442ZM3.54545 7.73079C3.54545 8.08224 3.26055 8.36715 2.90909 8.36715C2.55764 8.36715 2.27273 8.08224 2.27273 7.73079V3.10979C2.27273 2.75834 2.55764 2.47343 2.90909 2.47343C3.26055 2.47343 3.54545 2.75834 3.54545 3.10979V7.73079Z" fill="url(#paint0_linear_2126_17342)" stroke="url(#paint1_linear_2126_17342)" stroke-width="0.5"/>
<defs>
<linearGradient id="paint0_linear_2126_17342" x1="8" y1="16" x2="8" y2="1" gradientUnits="userSpaceOnUse">
<stop offset="0.317708" stop-color="#9F132E"/>
<stop offset="1" stop-color="#DE3A58"/>
</linearGradient>
<linearGradient id="paint1_linear_2126_17342" x1="8" y1="16" x2="8" y2="1" gradientUnits="userSpaceOnUse">
<stop offset="0.317708" stop-color="#9F132E"/>
<stop offset="1" stop-color="#DE3A58"/>
</linearGradient>
</defs>
</svg>
