<svg width="22" height="20" viewBox="0 0 22 20" fill="none" xmlns="http://www.w3.org/2000/svg">
<path fill-rule="evenodd" clip-rule="evenodd" d="M0 7.71652C0 5.01548 0 3.66497 0.512911 2.63331C0.964079 1.72584 1.68399 0.988037 2.56946 0.525656C3.5761 0 4.89387 0 7.52941 0H13.6471C16.2826 0 17.6004 0 18.607 0.525656C19.4925 0.988037 20.2124 1.72584 20.6636 2.63331C21.1765 3.66497 21.1765 5.01548 21.1765 7.71652V9.16337C21.1765 11.8644 21.1765 13.2149 20.6636 14.2466C20.2124 15.154 19.4925 15.8918 18.607 16.3542C17.6004 16.8799 16.2826 16.8799 13.6471 16.8799H5.19319C4.88117 16.8799 4.58193 17.0069 4.3613 17.233L2.00836 19.6444C1.26722 20.404 0 19.866 0 18.7919V16.8799V10.8514V7.71652ZM7.05882 4.82282C6.40908 4.82282 5.88235 5.36264 5.88235 6.02853C5.88235 6.69442 6.40908 7.23424 7.05882 7.23424H14.1176C14.7674 7.23424 15.2941 6.69442 15.2941 6.02853C15.2941 5.36264 14.7674 4.82282 14.1176 4.82282H7.05882ZM7.05882 9.64565C6.40908 9.64565 5.88235 10.1855 5.88235 10.8514C5.88235 11.5172 6.40908 12.0571 7.05882 12.0571H10.5882C11.238 12.0571 11.7647 11.5172 11.7647 10.8514C11.7647 10.1855 11.238 9.64565 10.5882 9.64565H7.05882Z" fill="url(#paint0_linear_5718_645)"/>
<defs>
<linearGradient id="paint0_linear_5718_645" x1="10.5882" y1="0" x2="10.5882" y2="20" gradientUnits="userSpaceOnUse">
<stop stop-color="#DB3956"/>
<stop offset="1" stop-color="#9F142F"/>
</linearGradient>
</defs>
</svg>
