<svg width="15" height="19" viewBox="0 0 15 19" fill="none" xmlns="http://www.w3.org/2000/svg">
<path d="M9.22661 4.64453H5.50243C5.16386 4.64453 4.85352 4.92667 4.85352 5.29344C4.85352 5.66022 5.13565 5.94235 5.50243 5.94235H9.22661C9.56517 5.94235 9.87552 5.66022 9.87552 5.29344C9.87552 4.92667 9.56517 4.64453 9.22661 4.64453Z" fill="white"/>
<path d="M9.22661 7.94551H5.50243C5.16386 7.94551 4.85352 8.22765 4.85352 8.59442C4.85352 8.9612 5.13565 9.24333 5.50243 9.24333H9.22661C9.56517 9.24333 9.87552 8.9612 9.87552 8.59442C9.87552 8.22765 9.56517 7.94551 9.22661 7.94551Z" fill="white"/>
<path fill-rule="evenodd" clip-rule="evenodd" d="M3.84928 13.6729L5.64102 15.5224V13.6729H3.84928ZM7.8981 15.9285H12.4139V2.38599H2.25708V11.4158H6.54385C7.29178 11.4158 7.8981 12.0221 7.8981 12.77V15.9285ZM0 1.25745V12.4863C0 12.7794 0.114036 13.061 0.317977 13.2715L4.74585 17.8422C4.95843 18.0617 5.2509 18.1856 5.55642 18.1856H13.5425C14.1658 18.1856 14.671 17.6803 14.671 17.057V1.25745C14.671 0.634171 14.1658 0.128906 13.5425 0.128906H1.12854C0.505265 0.128906 0 0.634171 0 1.25745Z" fill="white"/>
</svg>
