<svg width="13" height="13" viewBox="0 0 13 13" fill="none" xmlns="http://www.w3.org/2000/svg">
<path d="M0 6.5C0 4.77609 0.68482 3.12279 1.90381 1.90381C3.12279 0.68482 4.77609 0 6.5 0C8.22391 0 9.87721 0.68482 11.0962 1.90381C12.3152 3.12279 13 4.77609 13 6.5C13 8.22391 12.3152 9.87721 11.0962 11.0962C9.87721 12.3152 8.22391 13 6.5 13C4.77609 13 3.12279 12.3152 1.90381 11.0962C0.68482 9.87721 0 8.22391 0 6.5ZM6.5 1.21875C5.09933 1.21875 3.75602 1.77517 2.76559 2.76559C1.77517 3.75602 1.21875 5.09933 1.21875 6.5C1.21875 7.90067 1.77517 9.24398 2.76559 10.2344C3.75602 11.2248 5.09933 11.7812 6.5 11.7812C7.90067 11.7812 9.24398 11.2248 10.2344 10.2344C11.2248 9.24398 11.7812 7.90067 11.7812 6.5C11.7812 5.09933 11.2248 3.75602 10.2344 2.76559C9.24398 1.77517 7.90067 1.21875 6.5 1.21875ZM5.28125 6.29688C5.28125 6.13526 5.34545 5.98026 5.45973 5.86598C5.57401 5.7517 5.72901 5.6875 5.89062 5.6875H6.70312C6.86474 5.6875 7.01974 5.7517 7.13402 5.86598C7.2483 5.98026 7.3125 6.13526 7.3125 6.29688V8.53125H7.51562C7.67724 8.53125 7.83224 8.59545 7.94652 8.70973C8.0608 8.82401 8.125 8.97901 8.125 9.14062C8.125 9.30224 8.0608 9.45724 7.94652 9.57152C7.83224 9.6858 7.67724 9.75 7.51562 9.75H5.89062C5.72901 9.75 5.57401 9.6858 5.45973 9.57152C5.34545 9.45724 5.28125 9.30224 5.28125 9.14062C5.28125 8.97901 5.34545 8.82401 5.45973 8.70973C5.57401 8.59545 5.72901 8.53125 5.89062 8.53125H6.09375V6.90625H5.89062C5.72901 6.90625 5.57401 6.84205 5.45973 6.72777C5.34545 6.61349 5.28125 6.45849 5.28125 6.29688ZM6.5 4.875C6.28451 4.875 6.07785 4.7894 5.92548 4.63702C5.7731 4.48465 5.6875 4.27799 5.6875 4.0625C5.6875 3.84701 5.7731 3.64035 5.92548 3.48798C6.07785 3.3356 6.28451 3.25 6.5 3.25C6.71549 3.25 6.92215 3.3356 7.07452 3.48798C7.2269 3.64035 7.3125 3.84701 7.3125 4.0625C7.3125 4.27799 7.2269 4.48465 7.07452 4.63702C6.92215 4.7894 6.71549 4.875 6.5 4.875Z" fill="#747474"/>
</svg>
