<svg width="11" height="11" viewBox="0 0 11 11" fill="none" xmlns="http://www.w3.org/2000/svg">
<g clip-path="url(#clip0_5192_1566)">
<path d="M0.230469 5.24648C0.230469 3.90408 0.763737 2.61665 1.71296 1.66743C2.66219 0.718205 3.94961 0.184937 5.29202 0.184937C6.63442 0.184937 7.92185 0.718205 8.87107 1.66743C9.8203 2.61665 10.3536 3.90408 10.3536 5.24648C10.3536 6.58889 9.8203 7.87631 8.87107 8.82554C7.92185 9.77476 6.63442 10.308 5.29202 10.308C3.94961 10.308 2.66219 9.77476 1.71296 8.82554C0.763737 7.87631 0.230469 6.58889 0.230469 5.24648ZM5.29202 1.13398C4.20131 1.13398 3.15528 1.56726 2.38403 2.3385C1.61279 3.10975 1.17951 4.15578 1.17951 5.24648C1.17951 6.33719 1.61279 7.38322 2.38403 8.15447C3.15528 8.92571 4.20131 9.35899 5.29202 9.35899C6.38272 9.35899 7.42875 8.92571 8.2 8.15447C8.97124 7.38322 9.40452 6.33719 9.40452 5.24648C9.40452 4.15578 8.97124 3.10975 8.2 2.3385C7.42875 1.56726 6.38272 1.13398 5.29202 1.13398ZM4.34298 5.08831C4.34298 4.96246 4.39297 4.84176 4.48196 4.75277C4.57095 4.66378 4.69165 4.61379 4.8175 4.61379H5.45019C5.57604 4.61379 5.69674 4.66378 5.78573 4.75277C5.87472 4.84176 5.92471 4.96246 5.92471 5.08831V6.82822H6.08288C6.20873 6.82822 6.32943 6.87821 6.41842 6.9672C6.50741 7.05619 6.5574 7.17689 6.5574 7.30274C6.5574 7.42859 6.50741 7.54928 6.41842 7.63827C6.32943 7.72726 6.20873 7.77726 6.08288 7.77726H4.8175C4.69165 7.77726 4.57095 7.72726 4.48196 7.63827C4.39297 7.54928 4.34298 7.42859 4.34298 7.30274C4.34298 7.17689 4.39297 7.05619 4.48196 6.9672C4.57095 6.87821 4.69165 6.82822 4.8175 6.82822H4.97567V5.56283H4.8175C4.69165 5.56283 4.57095 5.51284 4.48196 5.42385C4.39297 5.33486 4.34298 5.21416 4.34298 5.08831ZM5.29202 3.9811C5.12422 3.9811 4.96329 3.91444 4.84463 3.79579C4.72598 3.67713 4.65932 3.5162 4.65932 3.3484C4.65932 3.1806 4.72598 3.01968 4.84463 2.90102C4.96329 2.78237 5.12422 2.71571 5.29202 2.71571C5.45982 2.71571 5.62074 2.78237 5.7394 2.90102C5.85805 3.01968 5.92471 3.1806 5.92471 3.3484C5.92471 3.5162 5.85805 3.67713 5.7394 3.79579C5.62074 3.91444 5.45982 3.9811 5.29202 3.9811Z" fill="white" fill-opacity="0.8"/>
</g>
<defs>
<clipPath id="clip0_5192_1566">
<rect width="10.1231" height="10.1231" fill="white" transform="translate(0.230469 0.18457)"/>
</clipPath>
</defs>
</svg>
