<svg width="17" height="17" viewBox="0 0 17 17" fill="none" xmlns="http://www.w3.org/2000/svg">
<path d="M8.07495 8.4998L13.6796 2.81543C13.9187 2.57637 13.9187 2.20449 13.6796 1.96543C13.4406 1.72637 13.0687 1.72637 12.8296 1.96543L6.82651 8.0748C6.58745 8.31387 6.58745 8.68574 6.82651 8.9248L12.8296 15.0342C12.9359 15.1404 13.0953 15.2201 13.2546 15.2201C13.414 15.2201 13.5468 15.167 13.6796 15.0607C13.9187 14.8217 13.9187 14.4498 13.6796 14.2107L8.07495 8.4998Z" fill="black" fill-opacity="0.3"/>
<path d="M4.62183 8.4998L10.2265 2.81543C10.4656 2.57637 10.4656 2.20449 10.2265 1.96543C9.98745 1.72637 9.61558 1.72637 9.37651 1.96543L3.37339 8.0748C3.13433 8.31387 3.13433 8.68574 3.37339 8.9248L9.37651 15.0342C9.48276 15.1404 9.64214 15.2201 9.80151 15.2201C9.96089 15.2201 10.0937 15.167 10.2265 15.0607C10.4656 14.8217 10.4656 14.4498 10.2265 14.2107L4.62183 8.4998Z" fill="black" fill-opacity="0.3"/>
</svg>
