<svg width="20" height="17" viewBox="0 0 20 17" fill="none" xmlns="http://www.w3.org/2000/svg">
<path fill-rule="evenodd" clip-rule="evenodd" d="M0.826002 2.88635C0.416016 3.68964 0.416016 4.74122 0.416016 6.84436V9.28528V13.9794V15.4681C0.416016 16.3045 1.42895 16.7234 2.02136 16.132L3.90215 14.2543C4.07851 14.0783 4.3177 13.9794 4.56711 13.9794H9.92183C9.90431 13.7758 9.89536 13.5697 9.89536 13.3616C9.89536 9.43521 13.0783 6.25224 17.0047 6.25224C17.118 6.25224 17.2307 6.2549 17.3427 6.26014C17.3392 4.53913 17.3032 3.61156 16.9331 2.88635C16.5725 2.17975 15.997 1.60527 15.2892 1.24524C14.4846 0.835938 13.4312 0.835938 11.3246 0.835938H6.43452C4.32785 0.835938 3.27451 0.835938 2.46987 1.24524C1.76208 1.60527 1.18664 2.17975 0.826002 2.88635ZM5.11798 5.53002C5.11798 5.01153 5.539 4.5912 6.05837 4.5912H11.7007C12.2201 4.5912 12.6411 5.01153 12.6411 5.53002C12.6411 6.04851 12.2201 6.46884 11.7007 6.46884H6.05837C5.539 6.46884 5.11798 6.04851 5.11798 5.53002ZM5.11798 9.28528C5.11798 8.76679 5.539 8.34647 6.05837 8.34647H8.87954C9.39891 8.34647 9.81993 8.76679 9.81993 9.28528C9.81993 9.80378 9.39891 10.2241 8.87954 10.2241H6.05837C5.539 10.2241 5.11798 9.80378 5.11798 9.28528Z" fill="white"/>
<path fill-rule="evenodd" clip-rule="evenodd" d="M16.3966 8.58263C16.0259 8.186 15.4248 8.186 15.054 8.58263C14.6833 8.97925 14.6833 9.62231 15.054 10.0189L16.2814 11.332H12.7404C12.2161 11.332 11.791 11.7867 11.791 12.3476C11.791 12.9086 12.2161 13.3633 12.7404 13.3633L16.2814 13.3633L15.054 14.6764C14.6833 15.073 14.6833 15.716 15.054 16.1127C15.4248 16.5093 16.0259 16.5093 16.3966 16.1127L19.244 13.0665L19.2453 13.0651L19.916 12.3476L19.2447 11.6295L16.3966 8.58263Z" fill="white"/>
</svg>
