<svg width="37px" height="46px" viewBox="0 0 37 46" fill="#c0c0c0" xmlns="http://www.w3.org/2000/svg">
<path d="M31.9314 16.1004C32.4753 16.1112 33.0228 16.0848 33.5533 16.2431C34.9922 16.6726 36.0086 18.0331 36.0192 19.5707C36.0295 21.0855 36.0212 22.6003 36.0212 24.1151C36.021 30.1835 36.0234 36.252 36.0193 42.3204C36.0181 44.102 34.9012 45.5102 33.1877 45.9146C32.9909 45.9611 32.7921 46.0081 32.5863 45.9954C32.136 45.9783 31.6857 45.9516 31.2352 45.9477C30.9604 45.9453 30.6849 45.9965 30.4103 45.9916C29.6273 45.9775 28.8446 46.0265 28.0606 45.9524C27.5861 45.9076 27.1041 45.978 26.6267 45.9854C25.5209 46.0025 24.4146 45.9895 23.308 45.9608C22.699 45.9451 22.0821 45.9878 21.4689 45.9918C20.1265 46.0007 18.7841 45.9601 17.442 45.952C13.6099 45.9291 9.77767 45.9387 5.9455 45.9522C5.56151 45.9535 5.18051 45.9861 4.79325 45.9548C4.50844 45.9317 4.20739 45.8767 3.92391 45.9991C2.06383 45.9601 0.518596 44.4536 0.433659 42.5804C0.408544 42.027 0.421129 41.4718 0.421073 40.9175C0.420519 33.8304 0.419853 26.7432 0.421517 19.6561C0.421905 17.9742 1.516 16.5569 3.07326 16.1942C3.55705 16.0815 4.04755 16.1215 4.53505 16.0944C4.57059 16.0968 4.60624 16.0989 4.64189 16.1012C6.18723 16.1012 7.73257 16.1012 9.3023 16.1012C9.3023 15.9668 9.30225 15.8668 9.3023 15.7669C9.30275 14.909 9.30197 14.0511 9.3053 13.1932C9.30569 13.0955 9.2722 12.9888 9.34976 12.9014C9.3455 13.9662 9.31373 15.0312 9.36523 16.0958C9.43464 16.2096 9.54786 16.1637 9.642 16.1637C15.366 16.1658 21.09 16.1657 26.8141 16.1635C26.909 16.1635 27.0209 16.2073 27.0938 16.0993L27.089 16.1014C27.1129 16.1052 27.1368 16.1088 27.1607 16.1125C28.751 16.1086 30.3412 16.1045 31.9314 16.1004ZM16.6641 31.6294C16.2717 33.6764 15.8917 35.6884 15.4945 37.697C15.4406 37.9694 15.5215 38.0075 15.7632 38.0067C17.4073 38.0004 19.0514 38.0019 20.6955 38.0128C20.9544 38.0145 21.0086 37.9403 20.9595 37.6891C20.5845 35.7692 20.2247 33.8464 19.8515 31.9262C19.8127 31.7269 19.834 31.6207 20.0362 31.5186C21.5057 30.7772 22.3133 29.1687 22.0611 27.523C21.8068 25.8641 20.621 24.6358 18.9463 24.2965C17.4268 23.9886 15.7856 24.7206 14.947 26.0804C14.0824 27.4824 14.182 29.2289 15.1952 30.5174C15.5866 31.0152 16.0889 31.365 16.6641 31.6294Z" fill="#C0C0C0"/>
<path d="M9.35009 12.9021C9.27253 12.9895 9.30602 13.0962 9.30563 13.1939C9.30236 14.0518 9.30308 14.9097 9.30263 15.7676C9.30258 15.8676 9.30263 15.9675 9.30263 16.1019C7.73284 16.1019 6.1875 16.1019 4.64222 16.102C4.64366 15.0751 4.64549 14.0481 4.6456 13.0211C4.6456 12.9413 4.66867 12.8539 4.5957 12.7886C4.62265 11.6638 4.83261 10.5674 5.15888 9.49677C6.02933 6.64067 7.65317 4.30738 10.0699 2.5411C12.2268 0.964713 14.6573 0.165958 17.3138 0.0271303C19.5173 -0.0879677 21.6772 0.147662 23.7135 1.03285C28.0898 2.93524 30.6785 6.29709 31.6524 10.9369C31.9737 12.4677 31.9308 14.0231 31.9275 15.5747C31.9272 15.7502 31.9303 15.9257 31.9318 16.1012C30.3415 16.1051 28.7513 16.1093 27.161 16.1134C27.1545 16.0891 27.148 16.0647 27.1415 16.0404C27.1383 15.2371 27.134 14.4337 27.132 13.6304C27.13 12.8521 27.0618 12.081 26.873 11.3244C26.2026 8.6378 24.6725 6.63994 22.1261 5.48725C20.5331 4.76611 18.847 4.57777 17.1172 4.75092C14.9987 4.96293 13.1673 5.78769 11.7057 7.35781C10.2531 8.91823 9.52013 10.7926 9.35009 12.9021Z" fill="#C0C0C0"/>
</svg>
