<svg width="20" height="20" viewBox="0 0 20 20" fill="none" xmlns="http://www.w3.org/2000/svg">
<path id="Vector" d="M12.2999 6.77402C12.2114 7.14955 12.5066 7.50727 12.9051 7.50727H17.3636C18.2674 7.50727 19 8.29888 19 9.27536V11.1358C19 11.3667 18.9581 11.5954 18.8768 11.809L16.345 18.4526C16.2188 18.7838 15.92 19 15.5884 19H1.81818C1.36632 19 1 18.6042 1 18.1159V9.27536C1 8.78713 1.36632 8.39133 1.81818 8.39133H4.66696C4.93281 8.39133 5.18208 8.25176 5.33539 8.01709L9.79725 1.18716C9.91385 1.0087 10.1336 0.949016 10.3144 1.04671L11.7987 1.84857C12.6591 2.31344 13.1034 3.36333 12.8662 4.37065L12.2999 6.77402ZM4.27273 10.7594C4.27273 10.428 3.99484 10.1594 3.65204 10.1594H3.25705C2.91426 10.1594 2.63636 10.428 2.63636 10.7594V16.6319C2.63636 16.9633 2.91426 17.2319 3.25705 17.2319H3.65204C3.99483 17.2319 4.27273 16.9633 4.27273 16.6319V10.7594Z" fill="url(#paint0_linear_3095_265)" stroke="url(#paint1_linear_3095_265)" stroke-width="0.5"/>
<defs>
<linearGradient id="paint0_linear_3095_265" x1="10" y1="1" x2="10" y2="19" gradientUnits="userSpaceOnUse">
<stop offset="0.317708" stop-color="#9F132E"/>
<stop offset="1" stop-color="#DE3A58"/>
</linearGradient>
<linearGradient id="paint1_linear_3095_265" x1="10" y1="1" x2="10" y2="19" gradientUnits="userSpaceOnUse">
<stop offset="0.317708" stop-color="#9F132E"/>
<stop offset="1" stop-color="#DE3A58"/>
</linearGradient>
</defs>
</svg>
