<svg width="20" height="20" viewBox="0 0 20 20" fill="none" xmlns="http://www.w3.org/2000/svg">
<path fill-rule="evenodd" clip-rule="evenodd" d="M8.24596 9.35872C7.88138 9.35872 7.5931 9.64205 7.5931 10.0004C7.5931 10.3504 7.88138 10.6421 8.24596 10.6421H13.3332V9.35886H16.7832L15.4498 8.03386C15.1998 7.78386 15.1998 7.37553 15.4498 7.12553C15.6998 6.8672 16.1082 6.8672 16.3582 7.1172L18.7915 9.5422C18.9165 9.6672 18.9832 9.82553 18.9832 10.0005C18.9832 10.1672 18.9165 10.3339 18.7915 10.4505L16.3582 12.8755C16.2332 13.0005 16.0665 13.0672 15.9082 13.0672C15.7415 13.0672 15.5748 13.0005 15.4498 12.8755C15.1998 12.6255 15.1998 12.2172 15.4498 11.9672L16.7832 10.6422H13.3332V14.6254C13.3332 16.6671 11.6459 18.3337 9.56016 18.3337H5.43104C3.35376 18.3337 1.6665 16.6754 1.6665 14.6337V5.37539C1.6665 3.32539 3.36224 1.66705 5.43952 1.66705H9.57712C11.6459 1.66705 13.3332 3.32539 13.3332 5.36705V9.35872H8.24596Z" fill="#979797"/>
</svg>
