<svg width="20" height="20" viewBox="0 0 20 20" fill="none" xmlns="http://www.w3.org/2000/svg">
<path fill-rule="evenodd" clip-rule="evenodd" d="M11.2106 4.06543H13.7689C16.8439 4.06543 18.3439 5.70709 18.3356 9.07376V13.1321C18.3356 16.3488 16.3523 18.3321 13.1273 18.3321H6.86895C3.66061 18.3321 1.66895 16.3488 1.66895 13.1238V6.86543C1.66895 3.41543 3.20228 1.66543 6.22728 1.66543H7.54395C8.31978 1.65709 9.04395 2.01543 9.51895 2.62376L10.2523 3.59876C10.4856 3.89043 10.8356 4.06543 11.2106 4.06543ZM6.14486 12.7411H13.8615C14.2032 12.7411 14.4782 12.4578 14.4782 12.1161C14.4782 11.7661 14.2032 11.4911 13.8615 11.4911H6.14486C5.79486 11.4911 5.51986 11.7661 5.51986 12.1161C5.51986 12.4578 5.79486 12.7411 6.14486 12.7411Z" fill="black"/>
</svg>
