<svg width="20" height="20" viewBox="0 0 20 20" fill="none" xmlns="http://www.w3.org/2000/svg">
<rect width="20" height="20" fill="#D6D6D6"/>
<g id="&#235;&#185;&#132;&#236;&#156;&#168;&#236;&#136;&#152;&#236;&#160;&#149;&#235;&#179;&#184;">
<path d="M-2576 -1189C-2576 -1190.1 -2575.1 -1191 -2574 -1191H13928C13929.1 -1191 13930 -1190.1 13930 -1189V5542C13930 5543.1 13929.1 5544 13928 5544H-2574C-2575.1 5544 -2576 5543.1 -2576 5542V-1189Z" fill="#747474"/>
<path d="M-2574 -1190H13928V-1192H-2574V-1190ZM13929 -1189V5542H13931V-1189H13929ZM13928 5543H-2574V5545H13928V5543ZM-2575 5542V-1189H-2577V5542H-2575ZM-2574 5543C-2574.55 5543 -2575 5542.55 -2575 5542H-2577C-2577 5543.66 -2575.66 5545 -2574 5545V5543ZM13929 5542C13929 5542.55 13928.6 5543 13928 5543V5545C13929.7 5545 13931 5543.66 13931 5542H13929ZM13928 -1190C13928.6 -1190 13929 -1189.55 13929 -1189H13931C13931 -1190.66 13929.7 -1192 13928 -1192V-1190ZM-2574 -1192C-2575.66 -1192 -2577 -1190.66 -2577 -1189H-2575C-2575 -1189.55 -2574.55 -1190 -2574 -1190V-1192Z" fill="black" fill-opacity="0.1"/>
<g id="Slide 16:9 - 2" clip-path="url(#clip0_4824_1443)">
<rect width="1920" height="1053" transform="translate(-1272 -665)" fill="white"/>
<g id="Group 1000004536">
<g id="Group 1000004513">
</g>
<g id="Group 1000004520">
<g id="live_help">
<mask id="mask0_4824_1443" style="mask-type:alpha" maskUnits="userSpaceOnUse" x="0" y="0" width="20" height="20">
<rect id="Bounding box" width="20" height="20" fill="#D9D9D9"/>
</mask>
<g mask="url(#mask0_4824_1443)">
<path id="live_help_2" d="M10 19.1699L7.5 16.6699H4.16667C3.70833 16.6699 3.31597 16.5067 2.98958 16.1803C2.66319 15.8539 2.5 15.4616 2.5 15.0033V3.33659C2.5 2.87826 2.66319 2.48589 2.98958 2.15951C3.31597 1.83312 3.70833 1.66992 4.16667 1.66992H15.8333C16.2917 1.66992 16.684 1.83312 17.0104 2.15951C17.3368 2.48589 17.5 2.87826 17.5 3.33659V15.0033C17.5 15.4616 17.3368 15.8539 17.0104 16.1803C16.684 16.5067 16.2917 16.6699 15.8333 16.6699H12.5L10 19.1699ZM9.91667 14.1699C10.2083 14.1699 10.4549 14.0692 10.6562 13.8678C10.8576 13.6664 10.9583 13.4199 10.9583 13.1283C10.9583 12.8366 10.8576 12.5901 10.6562 12.3887C10.4549 12.1873 10.2083 12.0866 9.91667 12.0866C9.625 12.0866 9.37847 12.1873 9.17708 12.3887C8.97569 12.5901 8.875 12.8366 8.875 13.1283C8.875 13.4199 8.97569 13.6664 9.17708 13.8678C9.37847 14.0692 9.625 14.1699 9.91667 14.1699ZM9.16667 10.9616H10.7083C10.7083 10.7255 10.7188 10.5241 10.7396 10.3574C10.7604 10.1908 10.8056 10.031 10.875 9.87825C10.9444 9.72548 11.0312 9.58312 11.1354 9.45117C11.2396 9.31923 11.3889 9.15603 11.5833 8.96159C12.0694 8.47548 12.4132 8.06923 12.6146 7.74284C12.816 7.41645 12.9167 7.04492 12.9167 6.62826C12.9167 5.89214 12.6667 5.29839 12.1667 4.84701C11.6667 4.39562 10.9931 4.16992 10.1458 4.16992C9.38194 4.16992 8.73264 4.35742 8.19792 4.73242C7.66319 5.10742 7.29167 5.62826 7.08333 6.29492L8.45833 6.83659C8.55556 6.46159 8.75 6.15951 9.04167 5.93034C9.33333 5.70117 9.67361 5.58659 10.0625 5.58659C10.4375 5.58659 10.75 5.68728 11 5.88867C11.25 6.09006 11.375 6.35742 11.375 6.69076C11.375 6.92687 11.2986 7.17687 11.1458 7.44076C10.9931 7.70464 10.7361 7.99631 10.375 8.31575C10.1389 8.5102 9.94792 8.70117 9.80208 8.88867C9.65625 9.07617 9.53472 9.27409 9.4375 9.48242C9.34028 9.69075 9.27083 9.9095 9.22917 10.1387C9.1875 10.3678 9.16667 10.6421 9.16667 10.9616Z" fill="#DE3A58"/>
</g>
</g>
</g>
</g>
</g>
</g>
<defs>
<clipPath id="clip0_4824_1443">
<rect width="1920" height="1053" fill="white" transform="translate(-1272 -665)"/>
</clipPath>
</defs>
</svg>
