<svg width="28" height="22" viewBox="0 0 28 22" fill="none" xmlns="http://www.w3.org/2000/svg">
<path d="M9.99 6.17375C9.39 7.01708 8.705 8.26833 7.935 9.9275C7.715 9.515 7.53 9.18271 7.38 8.93062C7.23 8.67854 7.0275 8.3875 6.7725 8.0575C6.5175 7.7275 6.2625 7.46854 6.0075 7.28063C5.7525 7.09271 5.4375 6.93229 5.0625 6.79938C4.6875 6.66646 4.28 6.6 3.84 6.6H0.48C0.34 6.6 0.225 6.55875 0.135 6.47625C0.045 6.39375 0 6.28833 0 6.16V3.52C0 3.39167 0.045 3.28625 0.135 3.20375C0.225 3.12125 0.34 3.08 0.48 3.08H3.84C6.34 3.08 8.39 4.11125 9.99 6.17375ZM28 17.16C28 17.2883 27.955 17.3938 27.865 17.4763L21.945 21.8762C21.855 21.9587 21.74 22 21.6 22C21.47 22 21.3575 21.9565 21.2625 21.8694C21.1675 21.7823 21.12 21.6792 21.12 21.56V18.92C20.8 18.92 20.375 18.9223 19.845 18.9269C19.315 18.9315 18.91 18.936 18.63 18.9406C18.35 18.9452 17.985 18.9406 17.535 18.9269C17.085 18.9131 16.73 18.8902 16.47 18.8581C16.21 18.826 15.89 18.7779 15.51 18.7138C15.13 18.6496 14.815 18.5648 14.565 18.4594C14.315 18.354 14.025 18.2233 13.695 18.0675C13.365 17.9117 13.07 17.7283 12.81 17.5175C12.55 17.3067 12.275 17.0615 11.985 16.7819C11.695 16.5023 11.415 16.1838 11.145 15.8263C11.735 14.9738 12.415 13.7225 13.185 12.0725C13.405 12.485 13.59 12.8173 13.74 13.0694C13.89 13.3215 14.0925 13.6125 14.3475 13.9425C14.6025 14.2725 14.8575 14.5315 15.1125 14.7194C15.3675 14.9073 15.6825 15.0677 16.0575 15.2006C16.4325 15.3335 16.84 15.4 17.28 15.4H21.12V12.76C21.12 12.6317 21.165 12.5262 21.255 12.4437C21.345 12.3612 21.46 12.32 21.6 12.32C21.72 12.32 21.84 12.3658 21.96 12.4575L27.865 16.8438C27.955 16.9263 28 17.0317 28 17.16ZM28 4.84C28 4.96833 27.955 5.07375 27.865 5.15625L21.945 9.55625C21.855 9.63875 21.74 9.68 21.6 9.68C21.47 9.68 21.3575 9.63646 21.2625 9.54938C21.1675 9.46229 21.12 9.35917 21.12 9.24V6.6H17.28C16.8 6.6 16.365 6.66875 15.975 6.80625C15.585 6.94375 15.24 7.15 14.94 7.425C14.64 7.7 14.385 7.98187 14.175 8.27063C13.965 8.55937 13.74 8.91458 13.5 9.33625C13.18 9.90458 12.79 10.6883 12.33 11.6875C12.04 12.2925 11.7925 12.8013 11.5875 13.2138C11.3825 13.6263 11.1125 14.1075 10.7775 14.6575C10.4425 15.2075 10.1225 15.6658 9.8175 16.0325C9.5125 16.3992 9.1425 16.7796 8.7075 17.1737C8.2725 17.5679 7.8225 17.8819 7.3575 18.1156C6.8925 18.3494 6.36 18.5419 5.76 18.6931C5.16 18.8444 4.52 18.92 3.84 18.92H0.48C0.34 18.92 0.225 18.8787 0.135 18.7962C0.045 18.7137 0 18.6083 0 18.48V15.84C0 15.7117 0.045 15.6063 0.135 15.5238C0.225 15.4413 0.34 15.4 0.48 15.4H3.84C4.32 15.4 4.755 15.3313 5.145 15.1938C5.535 15.0562 5.88 14.85 6.18 14.575C6.48 14.3 6.735 14.0181 6.945 13.7294C7.155 13.4406 7.38 13.0854 7.62 12.6637C7.94 12.0954 8.33 11.3117 8.79 10.3125C9.08 9.7075 9.3275 9.19875 9.5325 8.78625C9.7375 8.37375 10.0075 7.8925 10.3425 7.3425C10.6775 6.7925 10.9975 6.33417 11.3025 5.9675C11.6075 5.60083 11.9775 5.22042 12.4125 4.82625C12.8475 4.43208 13.2975 4.11812 13.7625 3.88438C14.2275 3.65062 14.76 3.45813 15.36 3.30687C15.96 3.15563 16.6 3.08 17.28 3.08H21.12V0.44C21.12 0.311667 21.165 0.20625 21.255 0.12375C21.345 0.04125 21.46 0 21.6 0C21.72 0 21.84 0.0458333 21.96 0.1375L27.865 4.52375C27.955 4.60625 28 4.71167 28 4.84Z" fill="#747474"/>
</svg>
