<svg width="232" height="123" viewBox="0 0 232 123" fill="none" xmlns="http://www.w3.org/2000/svg">
<mask id="mask0_5838_2729" style="mask-type:alpha" maskUnits="userSpaceOnUse" x="7" y="23" width="215" height="56">
<rect width="215" height="55.7398" transform="matrix(-1 0 0 1 222 23)" fill="#C4C4C4"/>
</mask>
<g mask="url(#mask0_5838_2729)">
<g opacity="0.1">
<path d="M-2.99999 33.8478C-2.99999 33.8478 3.03793 38.5338 48.3004 39.6541C82.5543 40.5017 147.027 25.0605 186.032 26.0541C226.178 27.0673 221.865 37.316 221.865 30.4478V40.716C221.865 40.716 208.459 31.0616 185.155 31.1493C150.887 31.2954 80.4052 52.3188 46.7215 52.9715C13.8711 53.6048 -2.99999 40.716 -2.99999 40.716V33.8478Z" fill="url(#paint0_linear_5838_2729)"/>
</g>
<g opacity="0.2">
<path d="M4.46265 33.674C82.0447 71.6137 135.236 21.9105 176.523 23.019C219.033 24.1665 222 43.5583 222 35.8278V47.3896C222 47.3896 208.019 42.6072 184.057 41.1425C97.1105 35.8278 92.0416 83.3641 51.6314 78.2856C11.2212 73.207 -16.9221 23.2163 4.46265 33.674Z" fill="url(#paint1_linear_5838_2729)"/>
</g>
</g>
<g filter="url(#filter0_d_5838_2729)">
<g filter="url(#filter1_f_5838_2729)">
<circle cx="116.555" cy="61.2422" r="28.5078" fill="#979797" fill-opacity="0.43"/>
</g>
<g clip-path="url(#clip0_5838_2729)">
<path d="M144.427 32.8282H118.004C117.032 32.8282 116.134 32.5999 115.646 32.2291L107.956 26.3803C107.469 26.0095 106.571 25.7812 105.598 25.7812H85.9043C84.3999 25.7812 83.1797 26.3184 83.1797 26.9819V52.7674C83.1797 52.798 83.1831 52.8285 83.1882 52.8582C83.2942 51.7153 84.4694 50.815 85.9043 50.815H86.018V35.3788H144.313V37.837H144.426C145.931 37.837 147.151 38.8272 147.151 40.0482V34.0288C147.151 33.3661 145.931 32.8282 144.426 32.8282H144.427Z" fill="#9F132E"/>
<path d="M85.9043 89.7529H144.427C145.932 89.7529 147.152 88.7627 147.152 87.5417V40.0511C147.152 38.8301 145.932 37.8398 144.427 37.8398H124.733C123.761 37.8398 122.863 38.2599 122.375 38.9429L121.564 40.0791L120.703 41.2857L117.207 46.1833L116.346 47.3899L114.685 49.7157C114.198 50.3979 113.299 50.8187 112.327 50.8187H85.9043C84.4694 50.8187 83.2942 51.719 83.1882 52.862C83.1831 52.9171 83.1797 52.9731 83.1797 53.03V87.5425C83.1797 88.7635 84.3999 89.7537 85.9043 89.7537V89.7529Z" fill="url(#paint2_linear_5838_2729)"/>
<path d="M114.686 49.7178L116.347 47.392H91.1772C90.8437 47.392 90.5739 47.1222 90.5739 46.7887C90.5739 46.4552 90.8437 46.1854 91.1772 46.1854H117.208L120.704 41.2878H91.1772C90.8437 41.2878 90.5739 41.0179 90.5739 40.6845C90.5739 40.351 90.8437 40.0812 91.1772 40.0812H121.565L122.376 38.945C122.863 38.2628 123.762 37.8419 124.734 37.8419H144.315V35.3838H86.019V50.82H112.328C113.301 50.82 114.198 50.4 114.686 49.7169V49.7178Z" fill="#F2F2F2"/>
<path d="M91.1751 41.2867H120.702L121.563 40.0801H91.1751C90.8416 40.0801 90.5718 40.3499 90.5718 40.6834C90.5718 41.0168 90.8416 41.2867 91.1751 41.2867Z" fill="#DDDDDD"/>
<path d="M91.1751 47.3863H116.345L117.206 46.1797H91.1751C90.8416 46.1797 90.5718 46.4495 90.5718 46.783C90.5718 47.1164 90.8416 47.3863 91.1751 47.3863Z" fill="#DDDDDD"/>
</g>
<path d="M98.8033 72H96.3081L100.174 60.8484H103.147L106.998 72H104.518L103.678 69.4277H99.6427L98.8033 72ZM100.228 67.6256H103.093L101.699 63.3591H101.622L100.228 67.6256ZM114.052 64.0368C113.96 63.1511 113.259 62.6351 112.127 62.6351C110.956 62.6351 110.301 63.1742 110.294 63.9136C110.286 64.7222 111.118 65.0842 112.08 65.2998L113.082 65.5463C114.992 65.9852 116.416 66.9556 116.424 68.8116C116.416 70.8525 114.83 72.1617 112.111 72.154C109.416 72.1617 107.698 70.9141 107.629 68.519H109.878C109.955 69.6434 110.848 70.2133 112.08 70.2133C113.297 70.2133 114.083 69.6434 114.083 68.8116C114.083 68.0492 113.39 67.6949 112.173 67.3946L110.956 67.1019C109.077 66.6398 107.922 65.7003 107.922 64.0676C107.914 62.0421 109.701 60.6944 112.142 60.6944C114.614 60.6944 116.239 62.0652 116.27 64.0368H114.052ZM117.933 72V60.8484H120.244V65.7927H120.398L124.449 60.8484H127.237L123.078 65.8389L127.283 72H124.51L121.415 67.3946L120.244 68.8116V72H117.933ZM133.182 68.442V63.6363H135.462V72H133.275V70.4905H133.182C132.805 71.4609 131.904 72.1078 130.641 72.1078C128.97 72.1078 127.822 70.9218 127.822 68.9657V63.6363H130.102V68.5652C130.102 69.5587 130.672 70.1748 131.565 70.1825C132.397 70.1748 133.182 69.5818 133.182 68.442Z" fill="white"/>
</g>
<g filter="url(#filter2_d_5838_2729)">
<g filter="url(#filter3_f_5838_2729)">
<circle cx="42.4282" cy="59.4858" r="19.8315" fill="#979797" fill-opacity="0.43"/>
</g>
<g clip-path="url(#clip1_5838_2729)">
<path d="M61.8179 39.7225H43.4369C42.7604 39.7225 42.1359 39.5637 41.7965 39.3058L36.4469 35.237C36.1081 34.9791 35.483 34.8203 34.8065 34.8203H21.1063C20.0597 34.8203 19.2109 35.194 19.2109 35.6555V53.5933C19.2109 53.6146 19.2133 53.6358 19.2168 53.6565C19.2906 52.8614 20.1082 52.2351 21.1063 52.2351H21.1854V41.4969H61.7382V43.2069H61.8173C62.8639 43.2069 63.7127 43.8957 63.7127 44.7451V40.5578C63.7127 40.0968 62.8639 39.7225 61.8173 39.7225H61.8179Z" fill="#BE576B"/>
<path d="M21.1063 79.3224H61.8179C62.8645 79.3224 63.7133 78.6336 63.7133 77.7842V44.7472C63.7133 43.8978 62.8645 43.209 61.8179 43.209H48.1177C47.4413 43.209 46.8168 43.5012 46.4774 43.9763L45.9131 44.7667L45.3139 45.6061L42.882 49.0131L42.2829 49.8525L41.1277 51.4704C40.7889 51.945 40.1638 52.2378 39.4874 52.2378H21.1063C20.1082 52.2378 19.2906 52.8641 19.2168 53.6592C19.2133 53.6975 19.2109 53.7365 19.2109 53.776V77.7847C19.2109 78.6341 20.0597 79.323 21.1063 79.323V79.3224Z" fill="url(#paint3_linear_5838_2729)" fill-opacity="0.7"/>
<path d="M41.1279 51.4705L42.283 49.8526H24.7738C24.5418 49.8526 24.3541 49.6648 24.3541 49.4329C24.3541 49.2009 24.5418 49.0132 24.7738 49.0132H42.8822L45.3141 45.6061H24.7738C24.5418 45.6061 24.3541 45.4184 24.3541 45.1865C24.3541 44.9545 24.5418 44.7668 24.7738 44.7668H45.9132L46.4775 43.9764C46.8163 43.5018 47.4414 43.209 48.1179 43.209H61.739V41.499H21.1855V52.2372H39.4875C40.164 52.2372 40.7885 51.9451 41.1279 51.4699V51.4705Z" fill="#F2F2F2"/>
<path d="M24.7742 45.606H45.3145L45.9136 44.7666H24.7742C24.5422 44.7666 24.3545 44.9543 24.3545 45.1863C24.3545 45.4183 24.5422 45.606 24.7742 45.606Z" fill="#DDDDDD"/>
<path d="M24.7742 49.8491H42.2834L42.8825 49.0098H24.7742C24.5422 49.0098 24.3545 49.1975 24.3545 49.4294C24.3545 49.6614 24.5422 49.8491 24.7742 49.8491Z" fill="#DDDDDD"/>
</g>
</g>
<g filter="url(#filter4_d_5838_2729)">
<g filter="url(#filter5_f_5838_2729)">
<circle cx="189.139" cy="59.4858" r="19.8315" fill="#979797" fill-opacity="0.43"/>
</g>
<g clip-path="url(#clip2_5838_2729)">
<path d="M208.529 39.7225H190.148C189.471 39.7225 188.847 39.5637 188.507 39.3058L183.158 35.237C182.819 34.9791 182.194 34.8203 181.517 34.8203H167.817C166.771 34.8203 165.922 35.194 165.922 35.6555V53.5933C165.922 53.6146 165.924 53.6358 165.928 53.6565C166.002 52.8614 166.819 52.2351 167.817 52.2351H167.896V41.4969H208.449V43.2069H208.528C209.575 43.2069 210.424 43.8957 210.424 44.7451V40.5578C210.424 40.0968 209.575 39.7225 208.528 39.7225H208.529Z" fill="#BE576B"/>
<path d="M167.817 79.3224H208.529C209.575 79.3224 210.424 78.6336 210.424 77.7842V44.7472C210.424 43.8978 209.575 43.209 208.529 43.209H194.829C194.152 43.209 193.528 43.5012 193.188 43.9763L192.624 44.7667L192.025 45.6061L189.593 49.0131L188.994 49.8525L187.839 51.4704C187.5 51.945 186.875 52.2378 186.198 52.2378H167.817C166.819 52.2378 166.002 52.8641 165.928 53.6592C165.924 53.6975 165.922 53.7365 165.922 53.776V77.7847C165.922 78.6341 166.771 79.323 167.817 79.323V79.3224Z" fill="url(#paint4_linear_5838_2729)" fill-opacity="0.7"/>
<path d="M187.839 51.4705L188.994 49.8526H171.485C171.253 49.8526 171.065 49.6648 171.065 49.4329C171.065 49.2009 171.253 49.0132 171.485 49.0132H189.593L192.025 45.6061H171.485C171.253 45.6061 171.065 45.4184 171.065 45.1865C171.065 44.9545 171.253 44.7668 171.485 44.7668H192.624L193.188 43.9764C193.527 43.5018 194.152 43.209 194.829 43.209H208.45V41.499H167.896V52.2372H186.198C186.875 52.2372 187.499 51.9451 187.839 51.4699V51.4705Z" fill="#F2F2F2"/>
<path d="M171.485 45.606H192.025L192.625 44.7666H171.485C171.253 44.7666 171.065 44.9543 171.065 45.1863C171.065 45.4183 171.253 45.606 171.485 45.606Z" fill="#DDDDDD"/>
<path d="M171.485 49.8491H188.994L189.593 49.0098H171.485C171.253 49.0098 171.065 49.1975 171.065 49.4294C171.065 49.6614 171.253 49.8491 171.485 49.8491Z" fill="#DDDDDD"/>
</g>
</g>
<ellipse cx="116.809" cy="101.973" rx="35.8086" ry="7.30078" fill="url(#paint5_linear_5838_2729)" fill-opacity="0.2"/>
<defs>
<filter id="filter0_d_5838_2729" x="78.499" y="22.6608" width="73.3334" height="73.33" filterUnits="userSpaceOnUse" color-interpolation-filters="sRGB">
<feFlood flood-opacity="0" result="BackgroundImageFix"/>
<feColorMatrix in="SourceAlpha" type="matrix" values="0 0 0 0 0 0 0 0 0 0 0 0 0 0 0 0 0 0 127 0" result="hardAlpha"/>
<feOffset dy="1.56021"/>
<feGaussianBlur stdDeviation="2.34032"/>
<feComposite in2="hardAlpha" operator="out"/>
<feColorMatrix type="matrix" values="0 0 0 0 0 0 0 0 0 0 0 0 0 0 0 0 0 0 0.2 0"/>
<feBlend mode="normal" in2="BackgroundImageFix" result="effect1_dropShadow_5838_2729"/>
<feBlend mode="normal" in="SourceGraphic" in2="effect1_dropShadow_5838_2729" result="shape"/>
</filter>
<filter id="filter1_f_5838_2729" x="55.6516" y="0.339134" width="121.806" height="121.806" filterUnits="userSpaceOnUse" color-interpolation-filters="sRGB">
<feFlood flood-opacity="0" result="BackgroundImageFix"/>
<feBlend mode="normal" in="SourceGraphic" in2="BackgroundImageFix" result="shape"/>
<feGaussianBlur stdDeviation="16.1976" result="effect1_foregroundBlur_5838_2729"/>
</filter>
<filter id="filter2_d_5838_2729" x="15.9548" y="32.6496" width="51.0146" height="51.0122" filterUnits="userSpaceOnUse" color-interpolation-filters="sRGB">
<feFlood flood-opacity="0" result="BackgroundImageFix"/>
<feColorMatrix in="SourceAlpha" type="matrix" values="0 0 0 0 0 0 0 0 0 0 0 0 0 0 0 0 0 0 127 0" result="hardAlpha"/>
<feOffset dy="1.08537"/>
<feGaussianBlur stdDeviation="1.62805"/>
<feComposite in2="hardAlpha" operator="out"/>
<feColorMatrix type="matrix" values="0 0 0 0 0 0 0 0 0 0 0 0 0 0 0 0 0 0 0.2 0"/>
<feBlend mode="normal" in2="BackgroundImageFix" result="effect1_dropShadow_5838_2729"/>
<feBlend mode="normal" in="SourceGraphic" in2="effect1_dropShadow_5838_2729" result="shape"/>
</filter>
<filter id="filter3_f_5838_2729" x="0.0608597" y="17.1185" width="84.7347" height="84.7347" filterUnits="userSpaceOnUse" color-interpolation-filters="sRGB">
<feFlood flood-opacity="0" result="BackgroundImageFix"/>
<feBlend mode="normal" in="SourceGraphic" in2="BackgroundImageFix" result="shape"/>
<feGaussianBlur stdDeviation="11.2679" result="effect1_foregroundBlur_5838_2729"/>
</filter>
<filter id="filter4_d_5838_2729" x="162.666" y="32.6496" width="51.0146" height="51.0122" filterUnits="userSpaceOnUse" color-interpolation-filters="sRGB">
<feFlood flood-opacity="0" result="BackgroundImageFix"/>
<feColorMatrix in="SourceAlpha" type="matrix" values="0 0 0 0 0 0 0 0 0 0 0 0 0 0 0 0 0 0 127 0" result="hardAlpha"/>
<feOffset dy="1.08537"/>
<feGaussianBlur stdDeviation="1.62805"/>
<feComposite in2="hardAlpha" operator="out"/>
<feColorMatrix type="matrix" values="0 0 0 0 0 0 0 0 0 0 0 0 0 0 0 0 0 0 0.2 0"/>
<feBlend mode="normal" in2="BackgroundImageFix" result="effect1_dropShadow_5838_2729"/>
<feBlend mode="normal" in="SourceGraphic" in2="effect1_dropShadow_5838_2729" result="shape"/>
</filter>
<filter id="filter5_f_5838_2729" x="146.772" y="17.1185" width="84.7347" height="84.7347" filterUnits="userSpaceOnUse" color-interpolation-filters="sRGB">
<feFlood flood-opacity="0" result="BackgroundImageFix"/>
<feBlend mode="normal" in="SourceGraphic" in2="BackgroundImageFix" result="shape"/>
<feGaussianBlur stdDeviation="11.2679" result="effect1_foregroundBlur_5838_2729"/>
</filter>
<linearGradient id="paint0_linear_5838_2729" x1="109.5" y1="52.9941" x2="109.5" y2="26.0081" gradientUnits="userSpaceOnUse">
<stop stop-color="#FF768F"/>
<stop offset="1" stop-color="#DE3A58"/>
</linearGradient>
<linearGradient id="paint1_linear_5838_2729" x1="109.554" y1="78.666" x2="109.554" y2="23.0007" gradientUnits="userSpaceOnUse">
<stop stop-color="#FF768F"/>
<stop offset="1" stop-color="#DE3A58"/>
</linearGradient>
<linearGradient id="paint2_linear_5838_2729" x1="115.166" y1="37.8398" x2="115.166" y2="89.7537" gradientUnits="userSpaceOnUse">
<stop stop-color="#FF768F"/>
<stop offset="1" stop-color="#DE3A58"/>
</linearGradient>
<linearGradient id="paint3_linear_5838_2729" x1="41.4621" y1="43.209" x2="41.4621" y2="79.323" gradientUnits="userSpaceOnUse">
<stop stop-color="#FF768F"/>
<stop offset="1" stop-color="#DE3A58"/>
</linearGradient>
<linearGradient id="paint4_linear_5838_2729" x1="188.173" y1="43.209" x2="188.173" y2="79.323" gradientUnits="userSpaceOnUse">
<stop stop-color="#FF768F"/>
<stop offset="1" stop-color="#DE3A58"/>
</linearGradient>
<linearGradient id="paint5_linear_5838_2729" x1="116.809" y1="109.273" x2="116.809" y2="94.6719" gradientUnits="userSpaceOnUse">
<stop stop-color="#D9D9D9"/>
<stop offset="1" stop-color="#737373"/>
</linearGradient>
<clipPath id="clip0_5838_2729">
<rect x="83.1797" y="25.7812" width="63.9721" height="63.9688" rx="7.80107" fill="white"/>
</clipPath>
<clipPath id="clip1_5838_2729">
<rect x="19.2109" y="34.8203" width="44.5024" height="44.5" rx="5.42683" fill="white"/>
</clipPath>
<clipPath id="clip2_5838_2729">
<rect x="165.922" y="34.8203" width="44.5024" height="44.5" rx="5.42683" fill="white"/>
</clipPath>
</defs>
</svg>
