<svg width="28" height="28" viewBox="0 0 28 28" fill="none" xmlns="http://www.w3.org/2000/svg">
<circle cx="13.9062" cy="13.9062" r="13.9062" transform="matrix(-1 0 0 1 27.8125 0)" fill="#FEF2F4"/>
<path d="M9.67231 9.89525C9.55928 9.81451 9.4106 9.80371 9.28708 9.86727C9.16357 9.93084 9.08594 10.0581 9.08594 10.197V17.6137C9.08594 17.7526 9.16357 17.8798 9.28708 17.9434C9.4106 18.007 9.55928 17.9962 9.67231 17.9154L14.864 14.2071C14.9614 14.1375 15.0193 14.0251 15.0193 13.9053C15.0193 13.7856 14.9614 13.6732 14.864 13.6036L9.67231 9.89525Z" fill="#DE3A58"/>
<path d="M17.9859 17.9845H18.7276V9.82617H17.9859V17.9845Z" fill="#DE3A58"/>
</svg>
