<?xml version="1.0" encoding="UTF-8"?>
<svg version="1.1" viewBox="0 0 1600 1600" width="1280" height="1280" xmlns="http://www.w3.org/2000/svg">
    <path transform="translate(1281,211)" d="m0 0c10.8 9.37 20.8 19.7 31 29.8 1.89 1.89 3.78 3.77 5.67 5.66 5.1 5.09 10.2 10.2 15.3 15.3 3.19 3.19 6.38 6.37 9.57 9.56 8.86 8.84 17.7 17.7 26.6 26.5 0.564 0.564 1.13 1.13 1.71 1.71 0.566 0.565 1.13 1.13 1.71 1.71 1.15 1.15 2.29 2.29 3.44 3.44 0.568 0.568 1.14 1.14 1.72 1.72 9.22 9.22 18.4 18.4 27.7 27.6 9.5 9.48 19 19 28.5 28.5 5.32 5.32 10.6 10.6 16 15.9 4.53 4.52 9.06 9.04 13.6 13.6 2.3 2.31 4.61 4.61 6.92 6.91 28.9 28.7 28.9 28.7 29 50.7 0.0225 13.9-4.65 26.1-14.3 36.4h-2c-0.227 0.552-0.454 1.1-0.688 1.67-1.7 3.02-3.86 5.14-6.31 7.58-0.887 0.892-1.77 1.78-2.69 2.7-2.31 2.05-2.31 2.05-4.31 2.05-0.247 0.578-0.495 1.16-0.75 1.75-1.43 2.58-3.03 4.31-5.25 6.25h-2c-0.66 1.32-1.32 2.64-2 4h-2c-0.33 0.99-0.66 1.98-1 3h-2c-0.33 0.99-0.66 1.98-1 3-1.94 2.19-1.94 2.19-4 4h-2c-0.33 0.99-0.66 1.98-1 3h-2l-0.656 1.64c-1.81 3.18-4.26 5.57-6.84 8.11-0.499 0.507-0.998 1.01-1.51 1.54-3.73 3.71-3.73 3.71-5.99 3.71-0.33 0.99-0.66 1.98-1 3h-2c-0.268 0.598-0.536 1.2-0.812 1.81-1.19 2.19-2.28 3.6-4.19 5.19h-2c-0.264 0.589-0.529 1.18-0.801 1.78-1.24 2.3-2.55 3.82-4.39 5.67-0.924 0.928-0.924 0.928-1.87 1.88-0.642 0.634-1.28 1.27-1.95 1.92-0.642 0.65-1.28 1.3-1.95 1.97-0.616 0.614-1.23 1.23-1.87 1.86-0.563 0.561-1.13 1.12-1.71 1.7-1.48 1.22-1.48 1.22-3.48 1.22-0.246 0.571-0.492 1.14-0.746 1.73-1.46 2.65-3.18 4.46-5.32 6.6-0.797 0.799-1.59 1.6-2.41 2.42-0.833 0.825-1.67 1.65-2.52 2.5-0.833 0.84-1.67 1.68-2.52 2.55-1.19 1.19-1.19 1.19-2.41 2.41-0.731 0.729-1.46 1.46-2.21 2.21-1.85 1.59-1.85 1.59-3.85 1.59-0.349 0.836-0.349 0.836-0.705 1.69-1.63 2.91-3.66 4.93-6.01 7.3-0.932 0.935-1.86 1.87-2.82 2.83-0.485 0.481-0.97 0.962-1.47 1.46-1.49 1.48-2.97 2.97-4.44 4.46-0.932 0.929-1.86 1.86-2.82 2.82-0.857 0.854-1.71 1.71-2.6 2.59-2.12 1.86-2.12 1.86-4.12 1.86-0.33 0.99-0.66 1.98-1 3h-2c-0.66 1.32-1.32 2.64-2 4h-2c-0.33 0.99-0.66 1.98-1 3h-2c-0.247 0.572-0.495 1.14-0.75 1.73-1.44 2.62-3.13 4.41-5.25 6.52-0.701 0.706-1.4 1.41-2.12 2.14-1.88 1.61-1.88 1.61-3.88 1.61-0.33 0.99-0.66 1.98-1 3h-2c-0.252 0.577-0.504 1.15-0.764 1.75-1.39 2.54-2.97 4.24-5.01 6.29-0.774 0.781-1.55 1.56-2.35 2.37-0.836 0.832-1.67 1.66-2.53 2.52-1.29 1.29-1.29 1.29-2.6 2.61-1.81 1.81-3.63 3.63-5.45 5.44-2.79 2.78-5.57 5.57-8.35 8.37-1.76 1.76-3.52 3.52-5.29 5.28-0.836 0.841-1.67 1.68-2.53 2.55-0.774 0.768-1.55 1.54-2.35 2.33-0.682 0.681-1.36 1.36-2.07 2.06-1.71 1.45-1.71 1.45-3.71 1.45v2c-13 11.6-26.8 14.8-43.7 14.2-8.95-0.688-16.3-4.81-23.3-10.2-1.24-0.924-1.24-0.924-2.5-1.87-11-9.36-15.6-22.9-16.8-36.9 0.987-28.7 25.3-46.4 44.1-65.2 2.97-2.96 5.93-5.93 8.9-8.89 5.6-5.59 11.2-11.2 16.8-16.8 6.38-6.37 12.8-12.7 19.1-19.1 13.1-13.1 26.2-26.2 39.3-39.3-17-0.66-34-1.15-51-1.13-1.96-6.78e-4 -3.92-0.00165-5.88-0.0029-4.05-0.00145-8.1 5.91e-4 -12.1 0.00534-5.11 0.00571-10.2 0.00229-15.3-0.00343-38.4-0.635-38.4-0.635-76.5 2.88-1.11 0.175-2.22 0.35-3.37 0.53-23 3.77-44.7 10.8-65.8 20.7-0.662 0.306-1.32 0.613-2.01 0.928-17.1 7.96-33.5 18-48 30.1-0.584 0.484-1.17 0.968-1.77 1.47-20.8 17.3-37.6 37-53.1 59.1-3.17 4.52-6.4 8.99-9.64 13.5-4.21 5.81-8.38 11.6-12.5 17.5-4.66 6.63-9.39 13.2-14.1 19.8-3.66 5.05-7.27 10.1-10.9 15.2-4.66 6.63-9.39 13.2-14.1 19.8-3.66 5.05-7.27 10.1-10.9 15.2-4.71 6.7-9.48 13.3-14.3 20-6.91 9.55-13.7 19.1-20.5 28.8-4.73 6.71-9.52 13.4-14.3 20-3.66 5.05-7.27 10.1-10.9 15.2-4.12 5.86-8.29 11.7-12.5 17.5-4.78 6.6-9.5 13.2-14.2 19.9-6.82 9.69-13.7 19.3-20.7 28.9-4.75 6.56-9.44 13.2-14.1 19.8-4.17 5.92-8.41 11.8-12.7 17.7-3.66 5.05-7.27 10.1-10.9 15.2-4.66 6.63-9.39 13.2-14.1 19.8-3.66 5.05-7.27 10.1-10.9 15.2-4.66 6.63-9.39 13.2-14.1 19.8-3.66 5.05-7.27 10.1-10.9 15.2-4.66 6.63-9.39 13.2-14.1 19.8-3.66 5.05-7.27 10.1-10.9 15.2-9.13 13-18.4 25.9-28 38.5-0.398 0.53-0.797 1.06-1.21 1.61-7.61 10.1-16 19.3-24.8 28.4-0.678 0.7-1.36 1.4-2.06 2.12-7.12 7.32-14.2 14.5-22.3 20.8-2.38 1.89-4.66 3.87-6.93 5.88-13.3 11.7-28.6 21.4-44 30.2-1.75 1.01-3.47 2.05-5.2 3.1-51.2 30.5-112 43.5-171 44.5-0.944 0.0186-1.89 0.0372-2.86 0.0563-24.1 0.473-48.2 0.428-72.2 0.351-3.73-0.0118-7.46-0.0224-11.2-0.0327-11.7-0.0329-23.5-0.0707-35.2-0.115-12.8-0.0486-25.5-0.0833-38.3-0.102-11.2-0.0168-22.3-0.0488-33.5-0.0949-6.23-0.0254-12.5-0.0444-18.7-0.0474-5.83-0.00316-11.6-0.0252-17.5-0.0616-2.13-0.0101-4.25-0.0135-6.38-0.00947-16.7 0.0254-30.4-1.23-43.4-12.9-0.784-0.866-1.57-1.73-2.38-2.62-0.566-0.597-1.13-1.19-1.71-1.81-9.12-9.89-13-21.7-12.6-35.2 1.03-11 5.19-19.9 11.3-29h2c0.373-0.884 0.373-0.884 0.754-1.79 4.05-7.2 13.7-11.8 21.2-14.2 10.5-2.49 21-2.26 31.8-2.21 1.98 0.00221 3.97 0.00351 5.95 0.00398 4.26 0.00292 8.52 0.0121 12.8 0.0263 6.8 0.0225 13.6 0.0304 20.4 0.0365 10.8 0.0114 21.6 0.0321 32.4 0.0569 75.5 0.352 75.5 0.352 151-0.284 1.02-0.0155 2.04-0.031 3.09-0.047 18.1-0.292 36.1-1.41 53.8-5.21 1.83-0.389 1.83-0.389 3.7-0.786 68.7-15.2 121-57.8 161-115 3.34-4.82 6.76-9.59 10.2-14.3 0.54-0.745 1.08-1.49 1.64-2.26 1.05-1.45 2.1-2.89 3.15-4.34 2.17-3 4.32-6.01 6.47-9.03 3.77-5.29 7.57-10.6 11.4-15.8 4.75-6.56 9.44-13.2 14.1-19.8 4.17-5.92 8.41-11.8 12.7-17.7 3.66-5.05 7.27-10.1 10.9-15.2 4.66-6.63 9.39-13.2 14.1-19.8 4.16-5.75 8.26-11.5 12.3-17.3 3.59-5.1 7.23-10.2 10.9-15.2 4.61-6.35 9.14-12.8 13.6-19.2 6.08-8.73 12.3-17.4 18.5-26 2.17-3 4.32-6.01 6.47-9.03 3.77-5.29 7.57-10.6 11.4-15.8 4.75-6.56 9.44-13.2 14.1-19.8 4.17-5.92 8.41-11.8 12.7-17.7 3.66-5.05 7.27-10.1 10.9-15.2 4.66-6.63 9.39-13.2 14.1-19.8 4.16-5.75 8.26-11.5 12.3-17.3 3.59-5.1 7.23-10.2 10.9-15.2 4.61-6.35 9.14-12.8 13.6-19.2 6.08-8.73 12.3-17.4 18.5-26 2.17-3 4.32-6.01 6.47-9.03 3.77-5.29 7.57-10.6 11.4-15.8 4.29-5.93 8.54-11.9 12.8-17.9 5.52-7.85 11.1-15.6 16.9-23.3 0.415-0.556 0.829-1.11 1.26-1.69 6.13-8.2 12.6-16 19.4-23.7 1.41-1.64 2.75-3.32 4.1-5.01 0.749-0.855 1.5-1.71 2.27-2.59h2c0.245-0.571 0.49-1.14 0.742-1.73 3.57-6.43 10.3-11.5 15.9-16.2 1.89-1.62 3.74-3.26 5.59-4.92 9.45-8.42 19.4-15.9 29.8-23.1 0.655-0.455 1.31-0.91 1.98-1.38 14-9.69 28.6-18.3 44-25.7 1.99-0.958 3.96-1.94 5.93-2.92 62.1-30.5 128-33.3 196-33 6.82 0.0234 13.6 0.0418 20.4 0.0521 1.41 0.00228 1.41 0.00228 2.85 0.00461 17.8 0.0186 35.5-0.388 53.2-1.07v-2c-0.897-0.402-0.897-0.402-1.81-0.812-2.19-1.19-3.6-2.28-5.19-4.19v-2c-1.32-0.66-2.64-1.32-4-2v-2h-2c-1.33-1.39-1.33-1.39-2.81-3.25-2.49-3.02-5.12-5.31-8.19-7.75-0.804-0.969-1.61-1.94-2.44-2.94-2.47-3.14-2.47-3.14-5.56-5.56-3.11-2.59-5.42-5.4-8-8.5-0.99-0.825-1.98-1.65-3-2.5-3.1-2.59-5.43-5.4-8-8.5-0.804-0.639-1.61-1.28-2.44-1.94-2.77-2.23-4.83-4.67-7.09-7.4-1.94-2.18-4.19-3.85-6.47-5.66-0.804-0.969-1.61-1.94-2.44-2.94-2.47-3.14-2.47-3.14-5.56-5.56-3.11-2.59-5.42-5.4-8-8.5-0.99-0.825-1.98-1.65-3-2.5-3.1-2.59-5.43-5.4-8-8.5-0.825-0.66-1.65-1.32-2.5-2-2.5-2-2.5-2-4.94-4.94-2.17-2.6-4.34-4.55-6.96-6.66-11-9.57-18.5-22.7-19.8-37.3-0.581-13.2 3.97-24.3 11.2-35.1h2c0.373-0.884 0.373-0.884 0.754-1.79 4.54-8.07 15.4-12.5 23.9-15 15.7-3.51 30.9 0.0303 43.4 9.79z" fill="#000002"/>
    <path transform="translate(922,887)" d="m0 0c3.74 1.25 4.03 2.29 6 5.62 2.86 4.64 5.88 9.06 9.12 13.4 0.464 0.627 0.928 1.25 1.41 1.9 0.979 1.32 1.96 2.64 2.94 3.97 7.54 10.2 14.9 20.6 22.2 31 3.44 4.88 6.9 9.74 10.4 14.6 3.04 4.24 6.02 8.52 9 12.8 6.34 9.11 12.8 18.1 19.6 26.9 1.29 1.71 2.57 3.43 3.84 5.15 20 26.9 45.7 47.8 74.5 64.6 0.721 0.423 1.44 0.845 2.19 1.28 40.9 23.6 86.2 30.8 133 31.3 2.62 0.0373 5.24 0.0749 7.87 0.113 34.8 0.479 69.5 0.494 104-0.738v-2c-0.837-0.348-0.837-0.348-1.69-0.703-5.94-3.34-10.9-9.39-15.1-14.7-2.08-2.68-2.08-2.68-4.69-4.62-2.5-2-2.5-2-4.94-4.94-2.47-3.14-2.47-3.14-5.56-5.56-3.11-2.59-5.42-5.4-8-8.5-0.99-0.825-1.98-1.65-3-2.5-3.1-2.59-5.43-5.4-8-8.5-1.21-0.959-1.21-0.959-2.44-1.94-2.77-2.23-4.83-4.67-7.09-7.4-1.94-2.18-4.19-3.85-6.47-5.66-0.804-0.969-1.61-1.94-2.44-2.94-2.47-3.14-2.47-3.14-5.56-5.56-3.11-2.59-5.42-5.4-8-8.5-0.99-0.825-1.98-1.65-3-2.5-3.1-2.59-5.43-5.4-8-8.5-1.24-0.99-1.24-0.99-2.5-2-2.5-2-2.5-2-4.94-4.94-2.17-2.6-4.34-4.55-6.96-6.66-12-10.5-18.7-24.1-19.9-40 0.238-12.3 4.55-22.4 11.2-32.4h2c0.373-0.884 0.373-0.884 0.754-1.79 4.54-8.07 15.4-12.5 23.9-15 13.4-3.01 27.2-0.869 38.8 6.35 13.1 9.45 24.2 21.9 35.5 33.2 1.89 1.89 3.78 3.77 5.67 5.66 5.1 5.09 10.2 10.2 15.3 15.3 3.19 3.19 6.38 6.37 9.57 9.56 8.86 8.84 17.7 17.7 26.6 26.5 0.564 0.564 1.13 1.13 1.71 1.71 0.566 0.565 1.13 1.13 1.71 1.71 1.15 1.15 2.29 2.29 3.44 3.44 0.568 0.568 1.14 1.14 1.72 1.72 9.22 9.22 18.4 18.4 27.7 27.6 9.5 9.48 19 19 28.5 28.5 5.32 5.32 10.6 10.6 16 15.9 4.53 4.52 9.06 9.04 13.6 13.6 2.3 2.31 4.61 4.61 6.92 6.91 28.9 28.7 28.9 28.7 29 50.7 0.0246 15.3-5.79 27.9-16.6 38.7-0.894 0.889-1.79 1.78-2.71 2.7-1.77 1.77-3.53 3.54-5.3 5.31-1.06 1.06-2.12 2.12-3.17 3.18-0.559 0.561-1.12 1.12-1.69 1.7-12.9 12.9-25.8 25.8-38.6 38.7-7.45 7.46-14.9 14.9-22.3 22.4-6.5 6.52-13 13-19.5 19.5-3.44 3.45-6.88 6.89-10.3 10.3-3.23 3.24-6.46 6.48-9.69 9.71-1.19 1.19-2.38 2.38-3.56 3.58-1.61 1.62-3.23 3.24-4.85 4.85-1.36 1.36-1.36 1.36-2.75 2.75-2.17 1.92-2.17 1.92-4.17 1.92-0.268 0.598-0.536 1.2-0.812 1.81-1.19 2.19-2.28 3.6-4.19 5.19h-2c-0.33 0.99-0.66 1.98-1 3h-2c-0.247 0.572-0.495 1.14-0.75 1.73-1.44 2.62-3.13 4.41-5.25 6.52-0.701 0.706-1.4 1.41-2.12 2.14-1.88 1.61-1.88 1.61-3.88 1.61-0.33 0.99-0.66 1.98-1 3h-2c-0.252 0.577-0.504 1.15-0.764 1.75-1.39 2.54-2.97 4.24-5.01 6.29-0.774 0.781-1.55 1.56-2.35 2.37-1.25 1.25-1.25 1.25-2.53 2.52-1.29 1.29-1.29 1.29-2.6 2.61-1.81 1.81-3.63 3.63-5.45 5.44-2.79 2.78-5.57 5.57-8.35 8.37-1.76 1.76-3.52 3.52-5.29 5.28-0.836 0.841-1.67 1.68-2.53 2.55-1.16 1.15-1.16 1.15-2.35 2.33-1.02 1.02-1.02 1.02-2.07 2.06-1.71 1.45-1.71 1.45-3.71 1.45v2c-13 11.6-26.8 14.8-43.7 14.2-8.95-0.688-16.3-4.81-23.3-10.2-0.825-0.616-1.65-1.23-2.5-1.87-11-9.36-15.6-22.9-16.8-36.9 0.987-28.7 25.3-46.4 44.1-65.2 2.97-2.96 5.93-5.93 8.9-8.89 5.6-5.59 11.2-11.2 16.8-16.8 6.38-6.37 12.8-12.7 19.1-19.1 13.1-13.1 26.2-26.2 39.3-39.3-17.6-0.7-35.2-1.15-52.8-1.2-3.7-0.0122-7.4-0.0317-11.1-0.0531-10.5-0.0604-21-0.116-31.5-0.149-6.49-0.0212-13-0.0567-19.5-0.101-2.43-0.0139-4.85-0.0228-7.28-0.0261-22.9-0.0338-45.9-1.56-68.4-6.16-1.9-0.379-1.9-0.379-3.84-0.766-31.8-6.5-61.8-17.7-90.6-32.5-2-1.03-4.02-2.03-6.03-3.03-17.9-9.02-34.2-20.7-50-33-0.946-0.732-1.89-1.46-2.87-2.22-18.2-14.4-35.9-31.4-50.1-49.8-0.913-1.13-1.83-2.25-2.75-3.37-7.83-9.59-15.1-19.5-22.3-29.6-0.521-0.736-1.04-1.47-1.58-2.23-2.53-3.58-5.06-7.17-7.59-10.8-2.59-3.68-5.21-7.35-7.83-11-2.62-3.66-5.24-7.33-7.83-11-0.488-0.693-0.977-1.39-1.48-2.1-0.997-1.42-1.99-2.84-2.99-4.26-2.74-3.9-5.53-7.74-8.43-11.5-0.609-0.809-1.22-1.62-1.85-2.45-1.18-1.57-2.38-3.12-3.59-4.67-3.93-5.25-3.93-5.25-3.49-8.57 0.547-0.794 1.09-1.59 1.66-2.41 1.08-1.57 1.08-1.57 2.18-3.17 0.894-1.2 1.79-2.39 2.7-3.58 1-1.34 2-2.68 3-4.03 0.517-0.695 1.03-1.39 1.57-2.1 2.53-3.44 4.98-6.93 7.43-10.4 4.16-5.93 8.37-11.8 12.6-17.7 4.77-6.58 9.49-13.2 14.2-19.8 4.74-6.74 9.53-13.4 14.3-20.2z" fill="#000002"/>
    <path transform="translate(171 400)" d="m0 0c2.38-0.00107 4.77-0.00302 7.15-0.00575 5.78-0.00433 11.6 5.71e-4 17.3 0.00985 6.76 0.0105 13.5 0.0103 20.3 0.00983 12.1-5e-4 24.2 0.00863 36.3 0.0232 11.7 0.014 23.3 0.0212 35 0.0205 0.717-4e-5 1.43-7.99e-5 2.17-1.21e-4 0.716-4.04e-5 1.43-8.07e-5 2.17-1.22e-4 13.4-6.95e-4 26.7 0.00523 40.1 0.0142 4.69 0.00298 9.37 0.00406 14.1 0.00453 6.35 0.00102 12.7 0.00723 19 0.0172 2.31 0.00288 4.62 0.00416 6.92 0.00357 21-0.00332 42.1 0.221 63 2.4 1.25 0.129 2.49 0.259 3.78 0.392 55.2 6.09 110 26.5 155 58.4 1.01 0.705 1.01 0.705 2.04 1.42 13.5 9.51 26.4 19.9 38.4 31.2 2.53 2.39 2.53 2.39 5.38 4.52 1.07 0.899 1.07 0.899 2.17 1.82v2h2c1.45 1.47 1.45 1.47 3.12 3.5 2.47 2.92 5 5.66 7.75 8.31 4.27 4.23 8.04 8.76 11.8 13.5 0.969 1.22 1.94 2.45 2.92 3.67 7.35 9.21 14.3 18.6 20.9 28.4 3.65 5.41 7.43 10.6 11.4 15.8 6.79 9 13.2 18.3 19.7 27.5 3.77 5.34 7.55 10.7 11.4 16 5.14 7.17 5.14 7.17 4.94 9.76-0.926 2.95-2.17 4.98-3.96 7.5-0.652 0.929-1.3 1.86-1.98 2.82-0.704 0.985-1.41 1.97-2.13 2.98-1.08 1.54-1.08 1.54-2.19 3.1-5.44 7.69-10.9 15.3-16.5 23-3.06 4.23-6.08 8.49-9.08 12.8-4.3 6.11-8.63 12.2-13 18.2-0.54 0.751-1.08 1.5-1.64 2.28-2.7 3.74-5.44 7.41-8.36 11-3.08-1.33-4.71-2.56-6.59-5.32-0.467-0.673-0.933-1.35-1.41-2.04-0.493-0.728-0.985-1.46-1.49-2.21-1.07-1.55-2.15-3.11-3.22-4.66-0.818-1.19-0.818-1.19-1.65-2.41-2.49-3.62-5.02-7.21-7.56-10.8-0.492-0.697-0.984-1.39-1.49-2.11-4.19-5.94-8.45-11.8-12.7-17.7-4.16-5.75-8.26-11.5-12.3-17.3-4.17-5.92-8.41-11.8-12.7-17.7-3.21-4.44-6.39-8.9-9.53-13.4-15.8-22.6-33.2-44.6-55.3-61.4-0.802-0.617-0.802-0.617-1.62-1.25-15.1-11.6-31.1-21.8-48.4-29.8-0.759-0.357-1.52-0.713-2.3-1.08-30.9-14.4-63.9-21.3-97.9-22.5-1.22-0.0421-2.43-0.0842-3.69-0.128-12.2-0.396-24.5-0.464-36.7-0.461-2.41-0.00304-4.81-0.00657-7.22-0.0105-5.12-0.00779-10.2-0.013-15.3-0.0163-8.1-0.00599-16.2-0.0226-24.3-0.0413-1.39-0.00316-2.78-0.00632-4.17-0.00947-1.04-0.00235-1.04-0.00235-2.1-0.00475-0.694-0.00157-1.39-0.00314-2.1-0.00476-0.696-0.00158-1.39-0.00317-2.11-0.0048-7.87-0.0178-15.7-0.0341-23.6-0.0492-0.716-0.00138-1.43-0.00275-2.17-0.00417-11.7-0.022-23.3-0.0327-35-0.0402-12-0.00809-24.1-0.0314-36.1-0.068-6.73-0.02-13.5-0.0322-20.2-0.0272-6.31 0.00465-12.6-0.0092-18.9-0.037-2.31-0.00689-4.62-0.00706-6.93 2e-4 -18.7 0.0528-32.8-1.47-46.9-14.8-9.21-9.65-14.3-21.4-14.8-34.9 0.5-12.1 4.77-21.9 11.4-31.9h2c0.249-0.589 0.498-1.18 0.754-1.79 4.05-7.2 13.7-11.8 21.2-14.2 11.6-2.92 23.6-2.27 35.5-2.24z" fill="#000002"/>
</svg>
