<?xml version="1.0" encoding="UTF-8"?>
<svg version="1.1" viewBox="0 0 1600 1600" width="1280" height="1280" xmlns="http://www.w3.org/2000/svg">
    <path transform="translate(986 -.438)" d="m0 0c0.735-9.11e-4 1.47-0.00182 2.23-0.00276 26.9-0.0297 53.2 1.6 79.8 5.12 2.98 0.387 5.96 0.742 8.94 1.09 30.3 3.56 60 9.58 89.5 17.2 1.09 0.279 2.17 0.558 3.29 0.846 38.4 9.99 76.1 23.8 112 40.9 2.69 1.28 5.39 2.53 8.09 3.78 12.8 5.97 25.3 12.5 37.6 19.5 0.786 0.445 1.57 0.889 2.38 1.35 22.5 12.8 44.7 27.3 65 43.4 1.72 1.36 3.46 2.69 5.2 4.03 6.63 5.12 13.1 10.4 19.4 15.9 3.49 3.03 7.05 5.96 10.7 8.84 4.73 3.83 9 7.98 13.2 12.3 2.89 2.98 5.9 5.58 9.15 8.16 0.993 1.07 1.95 2.18 2.88 3.31 3.61 4.24 7.53 8.1 11.5 12 5.14 5.08 9.94 10.2 14.4 15.9 2.05 2.57 4.17 5.04 6.34 7.5 26 29.7 47.2 64.1 64.9 99.3 0.408 0.813 0.817 1.63 1.24 2.46 24.1 48.4 37.8 101 43.8 155 0.0808 0.7 0.162 1.4 0.245 2.12 1.42 12.4 2.16 24.7 2.13 37.2-2.11e-4 0.868-4.23e-4 1.74-6.41e-4 2.63-0.136 57-12.1 114-33.4 167-0.591 1.5-1.18 3-1.77 4.5-3.56 8.94-7.57 17.6-12 26.1-1.39 2.7-2.76 5.42-4.13 8.13-13.4 26.4-29.1 50.8-47.1 74.2-0.464 0.606-0.928 1.21-1.41 1.84-6.9 8.98-14.2 17.6-21.6 26.2 1.7 4.14 4.64 7.24 7.56 10.6 1.09 1.26 2.18 2.51 3.27 3.77 0.539 0.621 1.08 1.24 1.63 1.88 2.12 2.47 4.17 5 6.22 7.54 3.55 4.38 7.27 8.56 11.1 12.7 3.12 3.51 6.05 7.16 9 10.8 2.19 2.64 4.44 5.19 6.75 7.72 3.92 4.3 7.59 8.76 11.2 13.3 2.19 2.64 4.44 5.19 6.75 7.72 3.92 4.3 7.59 8.76 11.2 13.3 2.89 3.5 5.95 6.84 9 10.2 3.1 3.49 6 7.12 8.93 10.8 2.33 2.79 4.76 5.44 7.25 8.09 12 13.1 21.5 26.7 21.3 45-0.878 11.8-7.05 23.3-15.3 31.7-12.9 10.9-27.1 12.2-43.3 12.1-1.47 0.00128-1.47 0.00128-2.96 0.00259-3.24 0.00163-6.48-0.00383-9.72-0.00932-2.34-2.82e-4 -4.67-1.23e-4 -7.01 4.43e-4 -6.32 2.86e-4 -12.6-0.00558-19-0.0126-5.94-0.00563-11.9-0.00662-17.8-0.00765-11.8-0.00218-23.5-0.00882-35.3-0.0183-11.4-0.00919-22.8-0.0163-34.3-0.0205-0.705-2.63e-4 -1.41-5.25e-4 -2.14-7.96e-4 -3.54-0.00131-7.07-0.00257-10.6-0.00381-29.3-0.0104-58.6-0.028-87.9-0.0503 0.00174 0.746 0.00348 1.49 0.00527 2.26 0.00695 3.41 0.0112 6.83 0.0155 10.2 0.00278 1.17 0.00556 2.35 0.00843 3.55 0.00767 8.23-0.199 16.4-0.842 24.6-0.0898 1.2-0.18 2.41-0.272 3.65-0.912 11.6-2.2 23.2-3.92 34.7-0.245 1.65-0.245 1.65-0.495 3.34-11.2 73.8-40.4 147-84.1 208-1.51 2.1-3 4.21-4.49 6.32-6.8 9.59-13.9 18.8-21.5 27.9-2.03 2.46-4.01 4.95-6 7.43-3.83 4.68-7.88 9.14-12 13.5-2.55 2.72-5.03 5.47-7.45 8.31-4.93 5.66-10.3 10.9-15.6 16.2-1.81 1.8-3.61 3.61-5.42 5.42-5.82 5.82-11.7 11.5-18 16.8-1.61 1.45-3.21 2.91-4.81 4.38-4.26 3.84-8.62 7.51-13.1 11.1-2.3 1.86-4.59 3.73-6.87 5.62-7.97 6.57-16.1 12.8-24.5 18.7-1.67 1.17-3.32 2.37-4.97 3.57-9.98 7.27-20.3 14-30.7 20.6-1.61 1.03-1.61 1.03-3.25 2.08-24.9 15.6-50.6 29.2-77.2 41.3-2.22 1.01-4.43 2.02-6.65 3.04-61.7 28.4-129 46.9-196 55.7-7.49 0.983-14.9 2.07-22.4 3.42-30.7 5.4-61.4 5.35-92.4 5.27-8.11-0.0196-16.2-0.00335-24.3 0.0132-15.9 0.0313-31.7 0.029-47.6 0.0115-13.9-0.0152-27.7-0.019-41.6-0.0119-0.925 4.58e-4 -1.85 9.17e-4 -2.8 0.00139-3.76 0.00187-7.51 0.00378-11.3 0.00576-35.1 0.0183-70.2 0.00182-105-0.0306-31.1-0.0285-62.3-0.0259-93.4 0.00277-35.1 0.0321-70.2 0.0449-105 0.0263-3.74-0.00192-7.48-0.0038-11.2-0.00566-1.38-7.12e-4 -1.38-7.12e-4 -2.79-0.00144-13.9-0.00681-27.8 0.00113-41.6 0.0163-15.8 0.0172-31.5 0.0128-47.3-0.0197-8.81-0.0176-17.6-0.0188-26.4 0.00388-5.89 0.0135-11.8 5e-3 -17.7-0.021-3.35-0.0142-6.7-0.016-10.1 0.00244-18 0.0912-34.5-0.471-48.2-13.8l-2.14-2.06c-5.16-5.36-8.25-11-10.9-17.9-0.365-0.944-0.73-1.89-1.11-2.86-3.47-12.2-0.493-23.6 5.35-34.5 4.23-6.83 9.83-12.8 15.1-18.8 1.64-1.88 3.27-3.77 4.89-5.66 5.23-6.09 10.5-12.1 16-18 5.98-6.4 11.6-13.1 16.9-20.1 0.928-1.08 0.928-1.08 1.88-2.19h2c0.246-0.566 0.492-1.13 0.746-1.71 1.47-2.68 3.23-4.62 5.32-6.85 3.21-3.5 6.28-7.05 9.25-10.8 4.41-5.46 9.13-10.6 13.9-15.7 4.32-4.63 8.44-9.42 12.5-14.2 1.03-1.21 2.07-2.42 3.1-3.63 0.52-0.609 1.04-1.22 1.58-1.84 3.72-4.34 7.53-8.59 11.4-12.8 3.25-3.69 6.29-7.54 9.32-11.4 0.61-0.678 1.22-1.36 1.85-2.05h2c-1.4-4.23-3.36-6.74-6.44-9.94-5.41-5.76-10.2-11.9-15.1-18.1-1.51-1.94-3.05-3.85-4.6-5.76-16.1-20-29.9-41.8-42.7-64-1.57-2.72-3.22-5.4-4.86-8.08-20.1-34.7-34-73.5-44.4-112l-0.875-3.22c-5.07-19-8.27-38.3-11.1-57.8-0.109-0.726-0.217-1.45-0.329-2.2-5.91-39.7-6.43-81.1 0.00323-121 0.341-2.12 0.668-4.24 0.992-6.37 7.58-49.5 22.1-96.4 43.3-142l1.33-2.83c13.1-27.6 29.5-53.7 47.7-78.2 1.01-1.37 2.02-2.75 3.03-4.12 9.13-12.3 18.6-24.4 29-35.7 1.79-1.96 3.54-3.95 5.28-5.96 11.4-13.1 23.3-26.2 36.6-37.4 2.29-1.98 4.49-4.03 6.69-6.09 5.38-5.03 10.9-9.84 16.6-14.4 2.44-1.98 4.83-4.02 7.21-6.09 23.7-20.5 50.5-38.2 77.5-54 1.41-0.824 2.81-1.65 4.21-2.48 29.1-17.2 59.7-32.9 91.4-44.7 2.38-0.763 2.38-0.763 3.48-1.99 0.107-1.47 0.146-2.95 0.158-4.43 0.0104-0.948 0.0208-1.9 0.0315-2.87 0.00716-1.04 0.0143-2.08 0.0217-3.15 0.0256-2.22 0.052-4.43 0.0791-6.65 0.0133-1.17 0.0265-2.33 0.0402-3.54 0.252-20.3 0.667-40.3 3.67-60.4 0.175-1.18 0.351-2.36 0.532-3.57 4.05-26.4 10.1-52 18.5-77.4 0.29-0.889 0.58-1.78 0.878-2.69 12.9-39 31.5-76.1 54.1-110 0.489-0.74 0.977-1.48 1.48-2.24 7.05-10.6 14.7-20.7 22.5-30.8 0.719-0.924 1.44-1.85 2.18-2.8 8.3-10.5 17.1-20.6 26.2-30.4 2.33-2.53 4.61-5.09 6.88-7.66 7.7-8.57 15.8-16.9 24.6-24.4 2.15-1.85 4.23-3.77 6.31-5.7 5.09-4.73 10.3-9.26 15.7-13.6 2.28-1.83 4.54-3.68 6.79-5.54 8.51-7.02 17.2-13.6 26.2-19.9l2.45-1.7c18.6-12.9 37.5-24.9 57.2-36 2-1.13 3.97-2.29 5.95-3.46 10.8-6.36 22-11.6 33.4-16.9 1.55-0.72 1.55-0.72 3.13-1.45 67.1-31 138-49.5 212-58.3 1.26-0.152 1.26-0.152 2.54-0.306 5.92-0.708 11.8-1.35 17.8-1.94 0.923-0.0936 1.85-0.187 2.8-0.284 18.2-1.8 36.4-2.16 54.7-2.15zm-356 212c-1.39 1.12-1.39 1.12-2.82 2.26-10.1 8.18-20.1 16.4-29.2 25.7-0.66 0.33-1.32 0.66-2 1v2l-1.79 0.762c-2.49 1.39-3.84 2.86-5.65 5.05-3.42 4.04-7.07 7.74-10.9 11.4-0.826 0.81-1.65 1.62-2.5 2.45l-2.39 2.32c-2.02 1.79-2.02 1.79-1.79 3.99h-2c-1.75 2.05-3.38 4.11-5 6.25-3.52 4.59-7.09 9.07-10.9 13.4-6.69 7.98-12.4 16.6-18.1 25.3-0.492 0.734-0.984 1.47-1.49 2.23-10.4 15.6-19.4 31.9-27.5 48.8-0.349 0.723-0.698 1.45-1.06 2.19-15 31.4-24.3 64.5-29.9 98.8l-0.37 2.17c-1.12 6.69-1.71 13.4-2.19 20.2-0.0469 0.656-0.0938 1.31-0.142 1.99-0.465 6.55-0.888 13.1-1.3 19.7 8.08-0.645 15.9-2.39 23.8-4.09 30.6-6.55 61.5-11.5 92.7-14.3 0.882-0.0797 1.76-0.159 2.67-0.242 22.9-2.03 45.7-2.59 68.6-2.57 1.3 2.72e-4 2.59 5.44e-4 3.93 8.24e-4 20.2 0.0194 40.2 0.48 60.3 2.19l3.75 0.292c87.9 6.93 174 30.6 287 84.7 0.929 0.514 1.86 1.03 2.82 1.56 16.3 9.09 32.3 18.7 47.8 29.1 0.652 0.435 1.3 0.869 1.98 1.32 11 7.37 21.9 15 32.4 23.1l1.92 1.46c7.2 5.51 14.2 11.3 21 17.2 3.56 3.09 7.18 6.09 10.9 9.03 4.22 3.42 8.07 7.05 11.8 11 1.96 1.94 3.95 3.73 6.04 5.52 4.85 4.2 9.37 8.71 13.9 13.3 0.811 0.808 1.62 1.62 2.46 2.45 4.87 4.88 9.5 9.88 14 15.1 1.02 1.17 2.05 2.33 3.07 3.5 55.2 63.1 96.4 137 116 219 0.308 1.25 0.616 2.49 0.933 3.77 0.267 1.1 0.535 2.21 0.81 3.35 0.726 2.92 0.726 2.92 2.82 5.74 2.64 0.449 2.64 0.449 5.78 0.361 1.23 0.00412 2.46 0.00825 3.73 0.0125 1.37-0.0106 2.74-0.0215 4.12-0.0327 1.44-8.46e-4 2.88-3.72e-4 4.32 0.00133 3.91 8.63e-4 7.83-0.0168 11.7-0.0377 4.09-0.0187 8.17-0.0205 12.3-0.0241 7.74-0.00934 15.5-0.034 23.2-0.064 8.81-0.0335 17.6-0.05 26.4-0.0651 18.1-0.0314 36.3-0.0842 54.4-0.151-2.44-4.19-5.25-7.8-8.44-11.4-1.08-1.25-2.16-2.5-3.25-3.75-0.552-0.634-1.1-1.27-1.67-1.92-2.56-2.95-5.1-5.92-7.65-8.9-1-1.17-2-2.33-3-3.5-2-2.33-4-4.67-6-7-0.495-0.578-0.99-1.16-1.5-1.75-0.998-1.16-2-2.33-2.99-3.49-2.53-2.96-5.07-5.91-7.61-8.86-5.34-6.2-10.6-12.5-15.7-18.8-2.19-2.62-4.46-5.13-6.78-7.64-6.87-7.59-12.2-15.1-15.4-24.9-0.237-0.717-0.474-1.43-0.719-2.17-2.91-10.5-1.07-22.9 4.1-32.4 4.3-6.96 9.21-12.5 15.1-18.1 5.2-5.03 10.3-10 15-15.5 2.02-2.36 4.15-4.62 6.27-6.9 5.78-6.35 11-13.1 16.2-19.9 0.762-0.989 1.52-1.98 2.31-3 21.6-28.3 39.9-59.7 52.7-93 0.293-0.743 0.586-1.49 0.887-2.25 14.1-35.8 23-74.8 23.4-113 0.00984-0.98 0.0197-1.96 0.0298-2.97 0.466-58.6-9.49-116-36.3-168-0.589-1.17-0.589-1.17-1.19-2.37-16.8-33.4-38-63.7-62.8-91.6-1.29-1.46-1.29-1.46-2.6-2.95-5.83-6.48-11.9-12.7-18.1-18.9-0.796-0.801-1.59-1.6-2.41-2.43-4.81-4.79-9.74-9.35-14.9-13.8-1.08-0.949-2.17-1.9-3.25-2.85-8.94-7.8-18.2-15.1-27.8-22.1-1.07-0.799-1.07-0.799-2.16-1.61-23.1-17.2-48-33-74-45.5-1.86-0.902-3.69-1.84-5.52-2.78-78.6-40.5-168-59.5-256-61.1-1.1-0.0219-2.21-0.0438-3.34-0.0664-87.2-1.49-174 15.9-366 119zm-44 372c-0.685 0.0726-1.37 0.145-2.08 0.22-43.4 4.63-86.3 13.6-128 26.8l-2.89 0.899c-33.8 10.6-66.8 24.1-97.9 40.9-2.07 1.11-4.16 2.19-6.25 3.26-19.8 10.2-38.7 22-56.9 34.9-1.26 0.882-2.53 1.76-3.79 2.64-8.3 5.82-16.3 12-24.2 18.4l-2.83 2.27c-14.3 11.5-14.3 11.5-27.6 24.2-1.61 1.61-3.3 3.07-5.04 4.54-8.87 7.66-17.4 16.2-24.9 25.1-1.89 2.22-3.86 4.35-5.84 6.49-5.04 5.59-9.66 11.5-14.2 17.4-1.57 2.04-3.16 4.07-4.74 6.1-7.02 9.02-13.6 18.2-19.8 27.9-0.505 0.794-1.01 1.59-1.53 2.41-57.1 90.2-77.9 196-54.9 300 7.64 33.4 19.6 65.8 35.4 96.3 1.02 1.97 2.03 3.95 3.03 5.93 13.8 27 31.5 51.7 51 75 0.43 0.516 0.859 1.03 1.3 1.56 10.1 12.1 20.8 23.7 32.1 34.7 10.5 10.2 17.5 20.4 18 35.4 0.0788 7.24-0.143 13.7-3.35 20.3-0.267 0.646-0.534 1.29-0.809 1.96-4.02 9.06-11.3 16.3-17.9 23.5-2.26 2.54-4.39 5.15-6.52 7.8-4.1 5.07-8.48 9.81-12.9 14.6-4.04 4.32-7.8 8.8-11.5 13.4-3.15 3.79-6.51 7.35-9.87 10.9-3.1 3.33-6.04 6.72-8.88 10.3-6.15 7.66-12.8 15-19.9 21.8-1.84 1.57-1.84 1.57-1.61 3.71 3.82 1.27 7.41 1.14 11.4 1.13 1.31 0.00218 1.31 0.00218 2.64 0.0044 2.95 0.00368 5.89 1.66e-4 8.84-0.00326 2.12 0.00115 4.25 0.00274 6.37 0.00473 5.85 0.00419 11.7 0.0021 17.6-9.86e-4 6.31-0.00225 12.6 0.00123 18.9 0.00398 11.7 0.0042 23.3 0.00382 35 0.00109 10.8-0.00251 21.6-0.00317 32.3-0.00198 0.715 7.64e-5 1.43 1.53e-4 2.17 2.31e-4 2.9 3.11e-4 5.81 6.3e-4 8.71 9.6e-4 27.3 0.00306 54.5 2.82e-4 81.8-0.0051 24.2-0.00473 48.4-0.00433 72.5 4.61e-4 27.2 0.00537 54.4 0.00747 81.5 0.00439 2.91-3.21e-4 5.81-6.34e-4 8.72-9.43e-4 1.07-1.19e-4 1.07-1.19e-4 2.17-2.4e-4 10.8-0.00113 21.5 1.83e-4 32.3 0.00272 12.3 0.00288 24.5 0.00201 36.8-0.00328 6.25-0.00261 12.5-0.00369 18.7-3.51e-4 46 0.222 46 0.222 91.9-2.82 0.822-0.0852 1.64-0.17 2.49-0.258 32.1-3.35 63.8-8.53 95.2-16.1 0.66-0.158 1.32-0.315 2-0.478 54.2-13 108-33.8 156-61.9 2.76-1.61 5.54-3.19 8.32-4.78 20.1-11.6 39.2-24.7 57.5-38.9 0.614-0.471 1.23-0.943 1.86-1.43 6.87-5.28 13.5-10.7 19.9-16.6 2.81-2.49 5.78-4.68 8.87-6.82 0.461-0.393 0.923-0.786 1.4-1.19v-2c0.538-0.21 1.08-0.42 1.63-0.637 3.27-1.88 5.7-4.49 8.31-7.18 0.769-0.782 0.769-0.782 1.55-1.58 1.02-1.04 2.05-2.08 3.06-3.13 3.26-3.33 6.57-6.6 9.9-9.86 6.55-6.44 12.8-12.9 18.5-20.1 2.06-2.57 4.24-4.99 6.47-7.41 5.23-5.76 9.92-11.9 14.6-18.1 0.727-0.966 0.727-0.966 1.47-1.95 13.7-18.3 25.9-37.8 36.5-58 0.689-1.3 0.689-1.3 1.39-2.62 29.2-55.3 44.9-118 44.8-180-9.37e-4 -0.76-0.00187-1.52-0.00284-2.3-0.167-63-15.8-126-45.9-181-1.27-2.37-2.52-4.75-3.76-7.14-5.34-10.1-11.3-19.8-17.7-29.3-0.56-0.841-0.56-0.841-1.13-1.7-5.33-7.97-10.9-15.7-16.7-23.3-0.51-0.669-1.02-1.34-1.55-2.03-6.43-8.37-13.2-16.4-20.1-24.4-1.4-1.63-2.74-3.31-4.08-4.99-0.75-0.856-1.5-1.71-2.27-2.59h-2c-0.335-0.823-0.335-0.823-0.677-1.66-1.72-3.04-4.02-5.3-6.49-7.73-0.511-0.51-1.02-1.02-1.55-1.55-1.08-1.08-2.17-2.16-3.25-3.23-1.64-1.62-3.27-3.25-4.9-4.88-5.54-5.52-11.2-10.9-17.1-16-1.19-1.04-2.38-2.09-3.57-3.14-31.4-27.6-66.5-50.7-103-70.7-1.48-0.802-2.95-1.61-4.42-2.42-22-12.1-45.3-21.8-68.8-30.8-1.58-0.606-1.58-0.606-3.2-1.23-54.1-20.5-111-32.5-169-37.8-1.27-0.119-2.55-0.237-3.86-0.359-43.3-3.78-87.9-3.3-131 1.36z" fill="#000002"/>
    <path transform="translate(1e3 965)" d="m0 0c18.5 17.1 29.3 40.6 30.6 65.7 0.593 24.9-7.48 47.9-24.1 66.6-0.737 0.831-1.47 1.66-2.23 2.52-14.5 15.4-36.4 26.3-57.6 27.7-30.9 0.658-54.7-6.73-77.7-28.2-13.3-13.7-21.2-31.3-24.5-49.9-0.183-0.949-0.366-1.9-0.555-2.88-3.47-24.3 3.85-49 18.5-68.6 5.1-6.58 10.6-12.4 17.1-17.6 0.731-0.601 1.46-1.2 2.21-1.82 10.7-8.18 24.6-13.8 37.8-16.2 0.692-0.129 1.38-0.258 2.1-0.391 28.7-4.2 56.5 4.29 78.4 23.1z" fill="#000002"/>
    <path transform="translate(371 941)" d="m0 0c28-0.773 50.6 6.75 71.8 25.4 16.2 15.5 27.9 38 28.7 60.7 0.404 28.9-7.01 52.3-27 73.7-11.4 11.3-25 18.7-40.3 23.3-1.03 0.32-2.05 0.639-3.11 0.969-22.7 5.98-48.1 2.55-68.4-8.89-6.4-3.84-13.1-7.9-18.5-13.1v-2c-0.583-0.241-1.17-0.482-1.77-0.73-13.4-7.61-20.7-28.4-25.3-42.5-6.26-23.8-2.11-49.7 10-70.8 14-23.1 35.1-37.9 61.2-44.6 4.3-1.04 8.31-1.36 12.7-1.5z" fill="#000002"/>
    <path transform="translate(720 963)" d="m0 0c17.5 15.3 30.2 37.8 31.8 61.3 0.491 13.8 0.425 26.8-4.22 39.8-0.374 1.06-0.748 2.12-1.13 3.21-4.43 11.4-10.8 21.6-18.9 30.8-0.87 1.01-0.87 1.01-1.76 2.05-15.1 16.3-38.6 26.4-60.6 27.3-27.2 0.61-50.5-6.26-70.5-25.2-1.07-1.04-1.07-1.04-2.16-2.1-0.917-0.806-0.917-0.806-1.85-1.63-15-13.7-24.1-36.6-25.3-56.5-1.18-27.9 7.12-52.1 26.1-72.9 35-36 90.1-36.7 128-6.12z" fill="#000002"/>
</svg>
