<svg width="17" height="17" viewBox="0 0 17 17" fill="none" xmlns="http://www.w3.org/2000/svg">
<path d="M1.78317 5.93592L3.79992 7.94502C4.82074 8.96197 6.41422 9.06118 7.55954 8.24266L8.75465 9.43324C8.40607 9.90451 8.20689 10.475 8.20689 11.0951C8.20689 11.864 8.50567 12.6081 9.05342 13.1538L11.0702 15.1629C12.1906 16.279 14.033 16.279 15.1784 15.1629C15.7012 14.5924 16 13.8731 16 13.1042C16 12.3353 15.7012 11.616 15.1535 11.0703L13.1616 9.06118C12.589 8.4907 11.842 8.21786 11.12 8.21786C10.5722 8.21786 10.0493 8.36668 9.57629 8.66432L8.33138 7.42414C8.63016 6.97768 8.77955 6.432 8.77955 5.88632C8.77955 5.1174 8.48077 4.3981 7.93301 3.85242L5.94116 1.84332C5.3685 1.27284 4.62156 1 3.89951 1C3.15257 1 2.40563 1.27284 1.85787 1.84332C1.31011 2.389 1.01133 3.10831 1.01133 3.87722C0.936638 4.64613 1.23542 5.36544 1.78317 5.93592ZM12.3649 9.8549L14.3567 11.864C14.7053 12.2112 14.8796 12.6577 14.8796 13.129C14.8796 13.6002 14.7053 14.0467 14.3567 14.394C14.0082 14.7412 13.56 14.9148 13.0869 14.9148C12.6388 14.9148 12.1657 14.7412 11.8171 14.394L9.80037 12.4097C9.47669 12.0624 9.27751 11.616 9.27751 11.1447C9.27751 10.8222 9.3522 10.5494 9.50159 10.2766L10.124 10.8967C10.3481 11.1199 10.6967 11.1199 10.9208 10.8967C11.1449 10.6734 11.1449 10.3262 10.9208 10.1029L10.3481 9.53245C11.0453 9.1852 11.842 9.30922 12.3649 9.8549ZM2.60481 2.63704C3.30196 1.94254 4.44727 1.94254 5.11952 2.63704L7.11137 4.64613C7.45995 4.99339 7.63423 5.43985 7.63423 5.91112C7.63423 6.15916 7.58444 6.40719 7.48484 6.63043L6.91219 6.08475C6.81259 5.98553 6.66321 5.91112 6.51382 5.91112C6.36443 5.91112 6.21504 5.96073 6.11545 6.08475C5.89136 6.30798 5.89136 6.65523 6.11545 6.87846L6.7379 7.42414C6.46402 7.57296 6.16524 7.64737 5.86647 7.64737C5.4183 7.64737 4.94524 7.47375 4.59666 7.1265L2.57991 5.14221C2.25624 4.79496 2.05705 4.34849 2.05705 3.87722C2.08195 3.40595 2.25624 2.95949 2.60481 2.63704Z" fill="url(#paint0_linear_2126_17344)" stroke="url(#paint1_linear_2126_17344)" stroke-width="0.7"/>
<defs>
<linearGradient id="paint0_linear_2126_17344" x1="8.5" y1="16" x2="8.5" y2="1" gradientUnits="userSpaceOnUse">
<stop offset="0.317708" stop-color="#9F132E"/>
<stop offset="1" stop-color="#DE3A58"/>
</linearGradient>
<linearGradient id="paint1_linear_2126_17344" x1="8.5" y1="16" x2="8.5" y2="1" gradientUnits="userSpaceOnUse">
<stop offset="0.317708" stop-color="#9F132E"/>
<stop offset="1" stop-color="#DE3A58"/>
</linearGradient>
</defs>
</svg>
