<svg width="13" height="13" viewBox="0 0 13 13" fill="none" xmlns="http://www.w3.org/2000/svg">
<path fill-rule="evenodd" clip-rule="evenodd" d="M11.7601 4.55436C12.0062 4.55479 12.1983 4.34838 12.1721 4.11156L11.7569 0.358135C11.7189 0.0139146 11.2776 -0.124335 11.0382 0.132943L9.90322 1.35275C9.32742 1.01038 8.69559 0.754366 8.02851 0.598211C6.5237 0.24595 4.93834 0.424959 3.5578 1.10302C2.17726 1.78108 1.09219 2.91366 0.497915 4.2969C-0.0963649 5.68014 -0.160832 7.22319 0.316118 8.64833C0.793067 10.0735 1.78011 11.2871 3.09958 12.0707C4.41906 12.8544 5.98431 13.1566 7.5136 12.9231C9.04289 12.6895 10.4358 11.9354 11.4416 10.7965C12.4474 9.65771 13 8.20891 13 6.71092C13 6.23728 12.6032 5.85332 12.1136 5.85332C11.6241 5.85332 11.2273 6.23728 11.2273 6.71092C11.2273 7.80037 10.8254 8.85404 10.0939 9.68228C9.36239 10.5105 8.34937 11.0589 7.23716 11.2288C6.12495 11.3987 4.98659 11.1789 4.02697 10.609C3.06735 10.039 2.3495 9.15641 2.00263 8.11995C1.65576 7.08348 1.70264 5.96126 2.13485 4.95527C2.56705 3.94927 3.35619 3.12558 4.36022 2.63245C5.36425 2.13931 6.51723 2.00912 7.61165 2.26531C7.98877 2.35359 8.35039 2.48575 8.68943 2.65718L7.55197 3.87961C7.31257 4.13688 7.50083 4.54698 7.85863 4.5476L11.7601 4.55436Z" fill="#747474"/>
</svg>
