<svg width="10" height="11" viewBox="0 0 10 11" fill="none" xmlns="http://www.w3.org/2000/svg">
<path fill-rule="evenodd" clip-rule="evenodd" d="M8.73393 3.95527C8.91192 3.95558 9.0508 3.80633 9.03186 3.63509L8.73166 0.921069C8.70413 0.672171 8.38509 0.572205 8.21199 0.758238L7.39127 1.64025C6.97492 1.39269 6.51806 1.20758 6.03571 1.09466C4.94761 0.83995 3.80128 0.969388 2.80304 1.45968C1.8048 1.94997 1.02021 2.76891 0.5905 3.7691C0.160789 4.76929 0.114175 5.88504 0.459046 6.91553C0.803918 7.94602 1.51763 8.82356 2.47171 9.3902C3.42579 9.95685 4.55759 10.1754 5.66339 10.0065C6.76918 9.83758 7.77636 9.29232 8.50362 8.46885C9.23089 7.64539 9.63048 6.59779 9.63048 5.51463C9.63048 5.17215 9.34354 4.89452 8.98957 4.89452C8.63561 4.89452 8.34866 5.17215 8.34866 5.51463C8.34866 6.30238 8.05805 7.06427 7.52913 7.66316C7.00021 8.26204 6.26772 8.65859 5.4635 8.78143C4.65929 8.90427 3.83616 8.74534 3.14228 8.33323C2.4484 7.92112 1.92934 7.28291 1.67853 6.53347C1.42771 5.78402 1.46161 4.97257 1.77413 4.24515C2.08665 3.51774 2.65725 2.92215 3.38325 2.56557C4.10924 2.209 4.94294 2.11486 5.73428 2.30011C6.00697 2.36394 6.26846 2.4595 6.51361 2.58346L5.69113 3.46737C5.51803 3.6534 5.65416 3.94993 5.91287 3.95038L8.73393 3.95527Z" fill="white" fill-opacity="0.8"/>
</svg>
