<svg width="36" height="31" viewBox="0 0 36 31" fill="none" xmlns="http://www.w3.org/2000/svg">
<path fill-rule="evenodd" clip-rule="evenodd" d="M24.7674 18.5573C27.3573 13.0854 25.8348 6.36737 20.8015 2.59704C15.0533 -1.70882 6.90291 -0.539584 2.59704 5.20861C-1.70882 10.9568 -0.539584 19.1072 5.20861 23.4131C10.3584 27.2707 17.4362 26.7338 21.9503 22.447C22.1138 22.9824 22.4281 23.4777 22.8854 23.8642L30.1301 29.987C31.6976 31.3118 34.057 31.0438 35.2875 29.4011C36.518 27.7585 36.1119 25.4189 34.3998 24.287L26.4872 19.0558C25.9589 18.7065 25.3588 18.545 24.7674 18.5573ZM17.4602 7.05763C20.7449 9.51812 21.413 14.1755 18.9525 17.4602C16.492 20.7449 11.8346 21.413 8.54995 18.9525C5.26527 16.492 4.59713 11.8346 7.05763 8.54995C9.51812 5.26527 14.1755 4.59713 17.4602 7.05763Z" fill="url(#paint0_linear_1611_19811)"/>
<defs>
<linearGradient id="paint0_linear_1611_19811" x1="18" y1="0" x2="18" y2="30.8298" gradientUnits="userSpaceOnUse">
<stop stop-color="#DE3A58"/>
<stop offset="1" stop-color="#9F132E"/>
</linearGradient>
</defs>
</svg>
