<svg width="36" height="31" viewBox="0 0 36 31" fill="none" xmlns="http://www.w3.org/2000/svg">
<path fill-rule="evenodd" clip-rule="evenodd" d="M24.7674 18.6597C27.3573 13.1576 25.8348 6.40252 20.8015 2.61138C15.0533 -1.71825 6.90291 -0.542563 2.59704 5.23736C-1.70882 11.0173 -0.539584 19.2127 5.20861 23.5423C10.3584 27.4212 17.4362 26.8814 21.9503 22.5709C22.1138 23.1093 22.4281 23.6073 22.8854 23.9959L30.1301 30.1525C31.6976 31.4846 34.057 31.2152 35.2875 29.5634C36.518 27.9117 36.1119 25.5592 34.3998 24.4211L26.4872 19.161C25.9589 18.8098 25.3588 18.6474 24.7674 18.6597ZM17.4602 7.09659C20.7449 9.57066 21.413 14.2538 18.9525 17.5566C16.492 20.8594 11.8346 21.5312 8.54995 19.0571C5.26527 16.5831 4.59713 11.9 7.05763 8.59715C9.51812 5.29433 14.1755 4.62251 17.4602 7.09659Z" fill="url(#paint0_linear_2435_17541)"/>
<defs>
<linearGradient id="paint0_linear_2435_17541" x1="18" y1="0" x2="18" y2="31" gradientUnits="userSpaceOnUse">
<stop stop-color="#DE3A58"/>
<stop offset="1" stop-color="#9F132E"/>
</linearGradient>
</defs>
</svg>
