<svg width="17" height="17" viewBox="0 0 17 17" fill="none" xmlns="http://www.w3.org/2000/svg">
<path fill-rule="evenodd" clip-rule="evenodd" d="M16.2063 2.5052C16.0306 2.42454 15.838 2.38163 15.6409 2.38163H9.8511V1.35506C9.8511 0.995678 9.70833 0.651012 9.45421 0.396889C9.20008 0.142765 8.85542 0 8.49603 0H1.35116H1.21037C0.888324 0 0.579468 0.127932 0.351747 0.355653C0.124026 0.583375 -0.00390625 0.892231 -0.00390625 1.21428V1.35506V13.2632V13.357C-0.00390625 13.6791 0.124026 13.988 0.351747 14.2157C0.475967 14.3399 0.624329 14.4344 0.785805 14.4947C0.9615 14.5753 1.15412 14.6183 1.35116 14.6183H7.14097V15.6448C7.14097 16.0042 7.28374 16.3489 7.53786 16.603C7.79198 16.8571 8.13665 16.9999 8.49603 16.9999H15.6409H15.7817C16.1037 16.9999 16.4126 16.8719 16.6403 16.6442C16.868 16.4165 16.996 16.1076 16.996 15.7856V15.6448V3.73669V3.64283C16.996 3.32078 16.868 3.01193 16.6403 2.78421C16.5161 2.65999 16.3677 2.56546 16.2063 2.5052ZM1.51541 6.54947V1.51931H8.33178V13.0989H1.51541V8.06878H4.62936L3.25661 9.44686L4.32819 10.5184L7.53751 7.30913L4.32819 4.09981L3.25661 5.17139L4.62936 6.54947H1.51541ZM9.8511 13.2632V10.0873L12.6639 12.9001L13.7355 11.8285L12.3627 10.4504H15.4767V15.4806H8.66028V14.6083C8.95914 14.5718 9.23911 14.4365 9.45421 14.2214C9.70833 13.9672 9.8511 13.6226 9.8511 13.2632ZM9.8511 3.90094V9.29422L12.6639 6.48144L13.7355 7.55302L12.3627 8.9311H15.4767V3.90094H9.8511Z" fill="url(#paint0_linear_5718_915)"/>
<defs>
<linearGradient id="paint0_linear_5718_915" x1="8.49603" y1="0" x2="8.49603" y2="16.9999" gradientUnits="userSpaceOnUse">
<stop stop-color="#DB3956"/>
<stop offset="1" stop-color="#9F142F"/>
</linearGradient>
</defs>
</svg>
