<svg width="56" height="56" viewBox="0 0 56 56" fill="none" xmlns="http://www.w3.org/2000/svg">
<g clip-path="url(#clip0_5027_875)">
<path d="M53.6178 6.16907H30.4866C29.6353 6.16907 28.8494 5.96925 28.4223 5.64464L21.6902 0.524427C21.2638 0.199817 20.4771 0 19.6259 0H2.38518C1.06817 0 0 0.470201 0 1.05108V23.6245C0 23.6512 0.00297126 23.6779 0.00742814 23.7039C0.10028 22.7034 1.12908 21.9152 2.38518 21.9152H2.48471V8.40197H53.5175V10.5539H53.617C54.9341 10.5539 56.0022 11.4208 56.0022 12.4897V7.22015C56.0022 6.64001 54.9341 6.16907 53.617 6.16907H53.6178Z" fill="#9F132E"/>
<path d="M2.38518 56.0023H53.6178C54.9348 56.0023 56.003 55.1354 56.003 54.0665V12.4919C56.003 11.423 54.9348 10.5562 53.6178 10.5562H36.3771C35.5258 10.5562 34.7399 10.9238 34.3128 11.5218L33.6027 12.5164L32.8487 13.5727L29.7883 17.8602L29.0344 18.9165L27.5807 20.9526C27.1543 21.5498 26.3677 21.9182 25.5164 21.9182H2.38518C1.12908 21.9182 0.10028 22.7064 0.00742814 23.7069C0.00297126 23.7552 0 23.8042 0 23.854V54.0672C0 55.1361 1.06817 56.003 2.38518 56.003V56.0023Z" fill="url(#paint0_linear_5027_875)"/>
<path d="M27.5806 20.9546L29.0343 18.9186H7.00018C6.70826 18.9186 6.47204 18.6823 6.47204 18.3904C6.47204 18.0985 6.70826 17.8623 7.00018 17.8623H29.7882L32.8486 13.5747H7.00018C6.70826 13.5747 6.47204 13.3385 6.47204 13.0466C6.47204 12.7547 6.70826 12.5185 7.00018 12.5185H33.6026L34.3127 11.5238C34.7391 10.9266 35.5257 10.5582 36.377 10.5582H53.5182V8.40625H2.48462V21.9195H25.5163C26.3676 21.9195 27.1535 21.5518 27.5806 20.9539V20.9546Z" fill="#F2F2F2"/>
<path d="M7.00031 13.5719H32.8487L33.6027 12.5156H7.00031C6.70838 12.5156 6.47217 12.7518 6.47217 13.0438C6.47217 13.3357 6.70838 13.5719 7.00031 13.5719Z" fill="#DDDDDD"/>
<path d="M7.00031 18.9127H29.0344L29.7883 17.8564H7.00031C6.70838 17.8564 6.47217 18.0927 6.47217 18.3846C6.47217 18.6765 6.70838 18.9127 7.00031 18.9127Z" fill="#DDDDDD"/>
</g>
<defs>
<linearGradient id="paint0_linear_5027_875" x1="28.0015" y1="10.5562" x2="28.0015" y2="56.003" gradientUnits="userSpaceOnUse">
<stop stop-color="#FF90A4"/>
<stop offset="1" stop-color="#DE3A58"/>
</linearGradient>
<clipPath id="clip0_5027_875">
<rect width="56.003" height="56" rx="6.82927" fill="white"/>
</clipPath>
</defs>
</svg>
