<svg width="21" height="16" viewBox="0 0 21 16" fill="none" xmlns="http://www.w3.org/2000/svg">
<path fill-rule="evenodd" clip-rule="evenodd" d="M1.10772 6.14882C2.58002 3.94579 5.66635 0.546875 10.6949 0.546875C15.7235 0.546875 18.8098 3.94579 20.2821 6.14882C20.7762 6.88811 21.0232 7.25775 21.0007 7.94066C20.9782 8.62358 20.6947 8.9928 20.1275 9.73123C18.4386 11.9302 15.0662 15.426 10.6949 15.426C6.32367 15.426 2.95124 11.9302 1.26232 9.73122C0.695167 8.99279 0.411588 8.62358 0.389104 7.94066C0.36662 7.25775 0.613653 6.88811 1.10772 6.14882ZM10.6949 12.2376C13.0428 12.2376 14.9461 10.3343 14.9461 7.98646C14.9461 5.63859 13.0428 3.73527 10.6949 3.73527C8.34705 3.73527 6.44372 5.63859 6.44372 7.98646C6.44372 10.3343 8.34705 12.2376 10.6949 12.2376Z" fill="url(#paint0_linear_5718_921)"/>
<defs>
<linearGradient id="paint0_linear_5718_921" x1="10.6949" y1="0.546875" x2="10.6949" y2="15.426" gradientUnits="userSpaceOnUse">
<stop stop-color="#DB3956"/>
<stop offset="1" stop-color="#9F142F"/>
</linearGradient>
</defs>
</svg>
