<svg width="32" height="31" viewBox="0 0 32 31" fill="none" xmlns="http://www.w3.org/2000/svg">
<mask id="mask0_4913_1975" style="mask-type:alpha" maskUnits="userSpaceOnUse" x="0" y="0" width="32" height="31">
<rect x="0.263153" width="31" height="31" fill="#D9D9D9"/>
</mask>
<g mask="url(#mask0_4913_1975)">
<path d="M2.84653 29.7082V27.1248H28.6799V29.7082H2.84653ZM5.42986 25.8332V18.0832C4.71944 16.9207 4.17049 15.6882 3.78299 14.3858C3.39549 13.0833 3.20174 11.754 3.20174 10.3978C3.20174 9.08456 3.36858 7.79289 3.70226 6.52275C4.03594 5.25262 4.42882 4.004 4.8809 2.77692C5.05312 2.32484 5.33299 1.96425 5.72049 1.69515C6.10799 1.42605 6.53854 1.2915 7.01215 1.2915C7.67951 1.2915 8.25 1.51755 8.72361 1.96963C9.19722 2.42171 9.39097 2.95991 9.30486 3.58421L8.94965 6.52275C8.82049 7.55609 8.91198 8.5356 9.22413 9.4613C9.53628 10.387 10.0045 11.1997 10.6288 11.8993C11.2531 12.599 12.0066 13.1587 12.8892 13.5785C13.7719 13.9983 14.7299 14.2082 15.7632 14.2082C17.0549 14.2082 18.3519 14.3427 19.6543 14.6118C20.9568 14.8809 22.0924 15.263 23.0611 15.7582C24.0299 16.2533 24.778 16.883 25.3054 17.6472C25.8328 18.4115 26.0965 19.3533 26.0965 20.4728V25.8332H13.1799V24.6384C13.1799 23.9064 13.4274 23.2767 13.9226 22.7493C14.4177 22.2219 15.0312 21.9582 15.7632 21.9582H20.9299V19.3748H15.7632C14.3208 19.3748 13.0991 19.8915 12.0981 20.9248C11.097 21.9582 10.5965 23.196 10.5965 24.6384V25.8332H5.42986ZM15.7632 12.9165C14.3424 12.9165 13.126 12.4106 12.1142 11.3988C11.1024 10.387 10.5965 9.17067 10.5965 7.74984C10.5965 6.329 11.1024 5.11268 12.1142 4.10088C13.126 3.08907 14.3424 2.58317 15.7632 2.58317C17.184 2.58317 18.4003 3.08907 19.4122 4.10088C20.424 5.11268 20.9299 6.329 20.9299 7.74984C20.9299 9.17067 20.424 10.387 19.4122 11.3988C18.4003 12.4106 17.184 12.9165 15.7632 12.9165Z" fill="#DE3A58"/>
</g>
</svg>
